<svg width="750" height="500" viewBox="0 0 750 500" fill="none" xmlns="http://www.w3.org/2000/svg">
<rect width="750" height="500" fill="#1E1E1E"/>
<g clip-path="url(#clip0_0_1)">
<path d="M684.319 443.863H63.838C43.439 421.791 31.93 390.366 39.854 361.375C47.778 332.384 71.382 308.198 100.171 299.57C125.622 291.943 153.712 295.887 178.581 286.537C201.46 277.935 219.678 257.837 225.997 234.225C232.473 210.028 226.904 184.196 230.536 159.412C234.567 131.909 250.475 106.354 273.375 90.596C295.28 75.523 325.814 70.017 348.475 83.928C384.846 106.254 387.07 166.742 427.067 181.623C447.278 189.143 469.847 181.479 489.131 171.826C508.415 162.173 527.535 150.214 549.051 148.765C569.805 147.367 590.993 156.77 603.881 173.097C616.769 189.424 620.994 212.217 614.814 232.079C609.252 249.956 595.763 266.852 599.485 285.2C604.293 308.897 632.896 317.139 653.295 330.121C689.963 353.458 703.705 404.962 684.319 443.863Z" fill="#E6E6FF"/>
<path d="M145.759 231.766H55.005C51.65 231.766 48.93 229.046 48.93 225.691V208.935C48.93 205.58 51.65 202.86 55.005 202.86H145.76C149.115 202.86 151.835 205.58 151.835 208.935V225.691C151.834 229.046 149.114 231.766 145.759 231.766Z" fill="#4145E7"/>
<path d="M67.612 212.784C67.612 215.285 65.585 217.313 63.084 217.313C60.583 217.313 58.556 215.286 58.556 212.784C58.556 210.283 60.583 208.256 63.084 208.256C65.585 208.256 67.612 210.283 67.612 212.784Z" fill="white"/>
<path d="M63.004 218.839C58.394 218.839 54.657 222.576 54.657 227.186H71.351C71.351 222.577 67.614 218.839 63.004 218.839Z" fill="white"/>
<path d="M143.938 212.784H77.842C76.591 212.784 75.578 211.77 75.578 210.52C75.578 209.27 76.592 208.256 77.842 208.256H143.938C145.189 208.256 146.202 209.27 146.202 210.52C146.203 211.771 145.189 212.784 143.938 212.784Z" fill="#1A0E90"/>
<path d="M82.474 217.459L83.607 219.755C83.685 219.913 83.836 220.022 84.01 220.047L86.544 220.415C86.983 220.479 87.158 221.018 86.84 221.327L85.007 223.114C84.881 223.237 84.823 223.414 84.853 223.587L85.286 226.11C85.361 226.547 84.902 226.88 84.51 226.674L82.244 225.483C82.088 225.401 81.902 225.401 81.746 225.483L79.48 226.674C79.088 226.88 78.629 226.547 78.704 226.11L79.137 223.587C79.167 223.414 79.109 223.237 78.983 223.114L77.15 221.327C76.833 221.018 77.008 220.479 77.446 220.415L79.98 220.047C80.154 220.022 80.305 219.912 80.383 219.755L81.516 217.459C81.711 217.062 82.278 217.062 82.474 217.459Z" fill="#FFD000"/>
<path d="M97.168 217.459L98.301 219.755C98.379 219.913 98.53 220.022 98.704 220.047L101.238 220.415C101.677 220.479 101.852 221.018 101.534 221.327L99.701 223.114C99.575 223.237 99.517 223.414 99.547 223.587L99.98 226.11C100.055 226.547 99.596 226.88 99.204 226.674L96.938 225.483C96.782 225.401 96.596 225.401 96.44 225.483L94.174 226.674C93.782 226.88 93.323 226.547 93.398 226.11L93.831 223.587C93.861 223.414 93.803 223.237 93.677 223.114L91.844 221.327C91.527 221.018 91.702 220.479 92.14 220.415L94.674 220.047C94.848 220.022 94.999 219.912 95.077 219.755L96.21 217.459C96.405 217.062 96.972 217.062 97.168 217.459Z" fill="#FFD000"/>
<path d="M111.862 217.459L112.995 219.755C113.073 219.913 113.224 220.022 113.398 220.047L115.932 220.415C116.371 220.479 116.546 221.018 116.228 221.327L114.395 223.114C114.269 223.237 114.211 223.414 114.241 223.587L114.674 226.11C114.749 226.547 114.29 226.88 113.898 226.674L111.632 225.483C111.476 225.401 111.29 225.401 111.134 225.483L108.868 226.674C108.476 226.88 108.017 226.547 108.092 226.11L108.525 223.587C108.555 223.414 108.497 223.237 108.371 223.114L106.538 221.327C106.221 221.018 106.396 220.479 106.834 220.415L109.368 220.047C109.542 220.022 109.693 219.912 109.771 219.755L110.904 217.459C111.099 217.062 111.666 217.062 111.862 217.459Z" fill="#FFD000"/>
<path d="M126.556 217.459L127.689 219.755C127.767 219.913 127.918 220.022 128.092 220.047L130.626 220.415C131.065 220.479 131.24 221.018 130.922 221.327L129.089 223.114C128.963 223.237 128.905 223.414 128.935 223.587L129.368 226.11C129.443 226.547 128.984 226.88 128.592 226.674L126.326 225.483C126.17 225.401 125.984 225.401 125.828 225.483L123.562 226.674C123.17 226.88 122.711 226.547 122.786 226.11L123.219 223.587C123.249 223.414 123.191 223.237 123.065 223.114L121.232 221.327C120.915 221.018 121.09 220.479 121.528 220.415L124.062 220.047C124.236 220.022 124.387 219.912 124.465 219.755L125.598 217.459C125.793 217.062 126.36 217.062 126.556 217.459Z" fill="white"/>
<path d="M141.25 217.459L142.383 219.755C142.461 219.913 142.611 220.022 142.786 220.047L145.32 220.415C145.759 220.479 145.934 221.018 145.616 221.327L143.783 223.114C143.657 223.237 143.599 223.414 143.629 223.587L144.062 226.11C144.137 226.547 143.678 226.88 143.286 226.674L141.02 225.483C140.864 225.401 140.678 225.401 140.522 225.483L138.256 226.674C137.864 226.88 137.405 226.547 137.48 226.11L137.913 223.587C137.943 223.414 137.885 223.237 137.759 223.114L135.926 221.327C135.609 221.018 135.784 220.479 136.222 220.415L138.756 220.047C138.93 220.022 139.081 219.912 139.159 219.755L140.292 217.459C140.487 217.062 141.054 217.062 141.25 217.459Z" fill="white"/>
<path d="M551.239 136.81H460.484C457.129 136.81 454.409 134.09 454.409 130.735V113.979C454.409 110.624 457.129 107.904 460.484 107.904H551.239C554.594 107.904 557.314 110.624 557.314 113.979V130.735C557.314 134.09 554.594 136.81 551.239 136.81Z" fill="#4145E7"/>
<path d="M473.092 117.828C473.092 120.329 471.065 122.356 468.564 122.356C466.063 122.356 464.035 120.329 464.035 117.828C464.035 115.327 466.062 113.299 468.564 113.299C471.066 113.299 473.092 115.327 473.092 117.828Z" fill="white"/>
<path d="M468.484 123.883C463.874 123.883 460.137 127.62 460.137 132.23H476.831C476.831 127.62 473.094 123.883 468.484 123.883Z" fill="white"/>
<path d="M549.418 117.828H483.322C482.071 117.828 481.058 116.814 481.058 115.564C481.058 114.313 482.072 113.3 483.322 113.3H549.418C550.668 113.3 551.682 114.314 551.682 115.564C551.682 116.814 550.669 117.828 549.418 117.828Z" fill="#1A0E90"/>
<path d="M487.953 122.503L489.086 124.799C489.164 124.957 489.314 125.066 489.489 125.092L492.023 125.46C492.462 125.524 492.637 126.063 492.319 126.372L490.486 128.159C490.36 128.282 490.302 128.459 490.332 128.632L490.765 131.155C490.84 131.592 490.381 131.925 489.989 131.719L487.723 130.528C487.567 130.446 487.381 130.446 487.225 130.528L484.959 131.719C484.567 131.925 484.108 131.592 484.183 131.155L484.616 128.632C484.646 128.459 484.588 128.282 484.462 128.159L482.629 126.372C482.312 126.063 482.487 125.524 482.925 125.46L485.459 125.092C485.633 125.067 485.784 124.957 485.862 124.799L486.995 122.503C487.191 122.106 487.757 122.106 487.953 122.503Z" fill="#FFD000"/>
<path d="M502.647 122.503L503.78 124.799C503.858 124.957 504.009 125.066 504.183 125.092L506.717 125.46C507.156 125.524 507.331 126.063 507.013 126.372L505.18 128.159C505.054 128.282 504.996 128.459 505.026 128.632L505.459 131.155C505.534 131.592 505.075 131.925 504.683 131.719L502.417 130.528C502.261 130.446 502.075 130.446 501.919 130.528L499.653 131.719C499.261 131.925 498.802 131.592 498.877 131.155L499.31 128.632C499.34 128.459 499.282 128.282 499.156 128.159L497.323 126.372C497.006 126.063 497.181 125.524 497.619 125.46L500.153 125.092C500.327 125.067 500.478 124.957 500.556 124.799L501.689 122.503C501.885 122.106 502.451 122.106 502.647 122.503Z" fill="#FFD000"/>
<path d="M517.341 122.503L518.474 124.799C518.552 124.957 518.703 125.066 518.877 125.092L521.411 125.46C521.85 125.524 522.025 126.063 521.707 126.372L519.874 128.159C519.748 128.282 519.691 128.459 519.72 128.632L520.153 131.155C520.228 131.592 519.769 131.925 519.377 131.719L517.111 130.528C516.955 130.446 516.769 130.446 516.613 130.528L514.347 131.719C513.955 131.925 513.496 131.592 513.571 131.155L514.004 128.632C514.034 128.459 513.976 128.282 513.85 128.159L512.017 126.372C511.7 126.063 511.875 125.524 512.313 125.46L514.847 125.092C515.021 125.067 515.172 124.957 515.25 124.799L516.383 122.503C516.579 122.106 517.145 122.106 517.341 122.503Z" fill="white"/>
<path d="M532.035 122.503L533.168 124.799C533.246 124.957 533.397 125.066 533.571 125.092L536.105 125.46C536.544 125.524 536.719 126.063 536.401 126.372L534.568 128.159C534.442 128.282 534.384 128.459 534.414 128.632L534.847 131.155C534.922 131.592 534.463 131.925 534.071 131.719L531.805 130.528C531.649 130.446 531.463 130.446 531.307 130.528L529.041 131.719C528.649 131.925 528.19 131.592 528.265 131.155L528.698 128.632C528.728 128.459 528.67 128.282 528.544 128.159L526.711 126.372C526.394 126.063 526.569 125.524 527.007 125.46L529.541 125.092C529.715 125.067 529.866 124.957 529.944 124.799L531.077 122.503C531.272 122.106 531.839 122.106 532.035 122.503Z" fill="white"/>
<path d="M546.729 122.503L547.862 124.799C547.94 124.957 548.091 125.066 548.265 125.092L550.799 125.46C551.238 125.524 551.413 126.063 551.095 126.372L549.262 128.159C549.136 128.282 549.078 128.459 549.108 128.632L549.541 131.155C549.616 131.592 549.157 131.925 548.765 131.719L546.499 130.528C546.343 130.446 546.157 130.446 546.001 130.528L543.735 131.719C543.343 131.925 542.884 131.592 542.959 131.155L543.392 128.632C543.422 128.459 543.364 128.282 543.238 128.159L541.405 126.372C541.088 126.063 541.263 125.524 541.701 125.46L544.235 125.092C544.409 125.067 544.56 124.957 544.638 124.799L545.771 122.503C545.966 122.106 546.533 122.106 546.729 122.503Z" fill="white"/>
<path d="M309.389 134.881H185.912C181.347 134.881 177.646 131.18 177.646 126.615V103.817C177.646 99.252 181.347 95.551 185.912 95.551H309.389C313.954 95.551 317.655 99.252 317.655 103.817V126.615C317.655 131.18 313.954 134.881 309.389 134.881Z" fill="#4145E7"/>
<path d="M203.066 109.055C203.066 112.458 200.308 115.216 196.905 115.216C193.502 115.216 190.744 112.458 190.744 109.055C190.744 105.652 193.503 102.894 196.905 102.894C200.307 102.894 203.066 105.652 203.066 109.055Z" fill="white"/>
<path d="M196.796 117.294C190.524 117.294 185.439 122.379 185.439 128.651H208.153C208.153 122.378 203.068 117.294 196.796 117.294Z" fill="white"/>
<path d="M306.912 109.055H216.984C215.283 109.055 213.903 107.676 213.903 105.974C213.903 104.273 215.282 102.893 216.984 102.893H306.912C308.613 102.893 309.993 104.272 309.993 105.974C309.993 107.676 308.614 109.055 306.912 109.055Z" fill="#1A0E90"/>
<path d="M223.286 115.416L224.828 118.54C224.934 118.755 225.139 118.904 225.376 118.938L228.823 119.439C229.42 119.526 229.658 120.259 229.226 120.68L226.732 123.111C226.56 123.278 226.482 123.519 226.523 123.755L227.112 127.188C227.214 127.782 226.59 128.236 226.056 127.955L222.973 126.334C222.761 126.223 222.508 126.223 222.296 126.334L219.213 127.955C218.679 128.236 218.055 127.782 218.157 127.188L218.746 123.755C218.786 123.519 218.708 123.278 218.537 123.111L216.043 120.68C215.611 120.259 215.849 119.526 216.446 119.439L219.893 118.938C220.13 118.903 220.335 118.755 220.441 118.54L221.983 115.416C222.248 114.875 223.019 114.875 223.286 115.416Z" fill="#FFD000"/>
<path d="M243.278 115.416L244.82 118.54C244.926 118.755 245.131 118.904 245.368 118.938L248.815 119.439C249.412 119.526 249.65 120.259 249.218 120.68L246.724 123.111C246.552 123.278 246.474 123.519 246.515 123.755L247.104 127.188C247.206 127.782 246.582 128.236 246.048 127.955L242.965 126.334C242.753 126.223 242.5 126.223 242.288 126.334L239.205 127.955C238.671 128.236 238.047 127.782 238.149 127.188L238.738 123.755C238.778 123.519 238.7 123.278 238.529 123.111L236.035 120.68C235.603 120.259 235.841 119.526 236.438 119.439L239.885 118.938C240.122 118.903 240.327 118.755 240.433 118.54L241.975 115.416C242.24 114.875 243.011 114.875 243.278 115.416Z" fill="#FFD000"/>
<path d="M263.27 115.416L264.812 118.54C264.918 118.755 265.123 118.904 265.36 118.938L268.807 119.439C269.404 119.526 269.642 120.259 269.21 120.68L266.716 123.111C266.544 123.278 266.466 123.519 266.507 123.755L267.096 127.188C267.198 127.782 266.574 128.236 266.04 127.955L262.957 126.334C262.745 126.223 262.492 126.223 262.28 126.334L259.197 127.955C258.663 128.236 258.039 127.782 258.141 127.188L258.73 123.755C258.77 123.519 258.692 123.278 258.521 123.111L256.027 120.68C255.595 120.259 255.833 119.526 256.43 119.439L259.877 118.938C260.114 118.903 260.319 118.755 260.425 118.54L261.967 115.416C262.232 114.875 263.003 114.875 263.27 115.416Z" fill="#FFD000"/>
<path d="M283.262 115.416L284.804 118.54C284.91 118.755 285.115 118.904 285.352 118.938L288.799 119.439C289.396 119.526 289.634 120.259 289.202 120.68L286.708 123.111C286.537 123.278 286.458 123.519 286.499 123.755L287.088 127.188C287.19 127.782 286.566 128.236 286.032 127.955L282.949 126.334C282.737 126.223 282.484 126.223 282.272 126.334L279.189 127.955C278.655 128.236 278.031 127.782 278.133 127.188L278.722 123.755C278.762 123.519 278.684 123.278 278.513 123.111L276.019 120.68C275.587 120.259 275.825 119.526 276.422 119.439L279.869 118.938C280.106 118.903 280.311 118.755 280.417 118.54L281.959 115.416C282.224 114.875 282.995 114.875 283.262 115.416Z" fill="#FFD000"/>
<path d="M303.254 115.416L304.796 118.54C304.902 118.755 305.107 118.904 305.344 118.938L308.791 119.439C309.388 119.526 309.626 120.259 309.194 120.68L306.7 123.111C306.529 123.278 306.45 123.519 306.491 123.755L307.08 127.188C307.182 127.782 306.558 128.236 306.024 127.955L302.941 126.334C302.729 126.223 302.476 126.223 302.264 126.334L299.181 127.955C298.647 128.236 298.023 127.782 298.125 127.188L298.714 123.755C298.754 123.519 298.676 123.278 298.505 123.111L296.011 120.68C295.579 120.259 295.817 119.526 296.414 119.439L299.861 118.938C300.098 118.903 300.303 118.755 300.409 118.54L301.951 115.416C302.216 114.875 302.987 114.875 303.254 115.416Z" fill="white"/>
<path d="M709.229 257.3H585.752C581.187 257.3 577.486 253.599 577.486 249.034V226.236C577.486 221.671 581.187 217.97 585.752 217.97H709.229C713.794 217.97 717.495 221.671 717.495 226.236V249.034C717.494 253.6 713.794 257.3 709.229 257.3Z" fill="#4145E7"/>
<path d="M602.905 231.475C602.905 234.878 600.146 237.636 596.744 237.636C593.341 237.636 590.583 234.878 590.583 231.475C590.583 228.072 593.341 225.314 596.744 225.314C600.146 225.313 602.905 228.072 602.905 231.475Z" fill="white"/>
<path d="M596.635 239.713C590.363 239.713 585.278 244.798 585.278 251.07H607.992C607.992 244.798 602.908 239.713 596.635 239.713Z" fill="white"/>
<path d="M706.752 231.475H616.824C615.123 231.475 613.743 230.096 613.743 228.394C613.743 226.693 615.122 225.313 616.824 225.313H706.752C708.453 225.313 709.833 226.692 709.833 228.394C709.832 230.095 708.453 231.475 706.752 231.475Z" fill="#1A0E90"/>
<path d="M623.125 237.835L624.667 240.959C624.773 241.174 624.978 241.323 625.215 241.357L628.662 241.858C629.259 241.945 629.497 242.678 629.065 243.099L626.571 245.53C626.4 245.697 626.321 245.938 626.362 246.174L626.951 249.607C627.053 250.201 626.429 250.655 625.895 250.374L622.812 248.753C622.6 248.642 622.347 248.642 622.135 248.753L619.052 250.374C618.518 250.655 617.894 250.201 617.996 249.607L618.585 246.174C618.625 245.938 618.547 245.697 618.376 245.53L615.882 243.099C615.45 242.678 615.689 241.945 616.285 241.858L619.732 241.357C619.969 241.323 620.174 241.174 620.28 240.959L621.822 237.835C622.087 237.294 622.858 237.294 623.125 237.835Z" fill="#FFD000"/>
<path d="M643.117 237.835L644.659 240.959C644.765 241.174 644.97 241.323 645.207 241.357L648.654 241.858C649.251 241.945 649.489 242.678 649.057 243.099L646.563 245.53C646.392 245.697 646.313 245.938 646.354 246.174L646.943 249.607C647.045 250.201 646.421 250.655 645.887 250.374L642.804 248.753C642.592 248.642 642.339 248.642 642.127 248.753L639.044 250.374C638.51 250.655 637.886 250.201 637.988 249.607L638.577 246.174C638.618 245.938 638.539 245.697 638.368 245.53L635.874 243.099C635.442 242.678 635.68 241.945 636.277 241.858L639.724 241.357C639.961 241.323 640.166 241.174 640.272 240.959L641.814 237.835C642.079 237.294 642.85 237.294 643.117 237.835Z" fill="white"/>
<path d="M663.109 237.835L664.651 240.959C664.757 241.174 664.962 241.323 665.199 241.357L668.646 241.858C669.243 241.945 669.481 242.678 669.049 243.099L666.555 245.53C666.383 245.697 666.305 245.938 666.346 246.174L666.935 249.607C667.037 250.201 666.413 250.655 665.879 250.374L662.796 248.753C662.584 248.642 662.331 248.642 662.119 248.753L659.036 250.374C658.502 250.655 657.878 250.201 657.98 249.607L658.569 246.174C658.609 245.938 658.531 245.697 658.36 245.53L655.866 243.099C655.434 242.678 655.672 241.945 656.269 241.858L659.716 241.357C659.953 241.323 660.158 241.174 660.264 240.959L661.806 237.835C662.071 237.294 662.842 237.294 663.109 237.835Z" fill="white"/>
<path d="M683.101 237.835L684.643 240.959C684.749 241.174 684.954 241.323 685.191 241.357L688.638 241.858C689.235 241.945 689.473 242.678 689.041 243.099L686.547 245.53C686.376 245.697 686.297 245.938 686.338 246.174L686.927 249.607C687.029 250.201 686.405 250.655 685.871 250.374L682.788 248.753C682.576 248.642 682.323 248.642 682.111 248.753L679.028 250.374C678.494 250.655 677.87 250.201 677.972 249.607L678.561 246.174C678.601 245.938 678.523 245.697 678.352 245.53L675.858 243.099C675.426 242.678 675.665 241.945 676.261 241.858L679.708 241.357C679.945 241.323 680.15 241.174 680.256 240.959L681.798 237.835C682.063 237.294 682.834 237.294 683.101 237.835Z" fill="white"/>
<path d="M703.093 237.835L704.635 240.959C704.741 241.174 704.946 241.323 705.183 241.357L708.63 241.858C709.227 241.945 709.465 242.678 709.033 243.099L706.539 245.53C706.368 245.697 706.289 245.938 706.33 246.174L706.919 249.607C707.021 250.201 706.397 250.655 705.863 250.374L702.78 248.753C702.568 248.642 702.315 248.642 702.103 248.753L699.02 250.374C698.486 250.655 697.862 250.201 697.964 249.607L698.553 246.174C698.594 245.938 698.515 245.697 698.344 245.53L695.85 243.099C695.418 242.678 695.657 241.945 696.253 241.858L699.7 241.357C699.937 241.323 700.142 241.174 700.248 240.959L701.79 237.835C702.055 237.294 702.826 237.294 703.093 237.835Z" fill="white"/>
<path d="M518.602 168.293H212.176C203.45 168.293 196.376 175.367 196.376 184.093V370.602C196.376 379.328 203.45 386.402 212.176 386.402H337.044V419.07H322.631C309.365 419.07 298.61 429.824 298.61 443.091H425.44C425.44 429.825 414.686 419.07 401.419 419.07H387.006V386.402H518.6C527.326 386.402 534.4 379.328 534.4 370.602V184.093C534.402 175.367 527.328 168.293 518.602 168.293Z" fill="#1A0E90"/>
<path d="M527.291 386.402H220.866C212.14 386.402 205.066 379.328 205.066 370.602V184.093C205.066 175.367 212.14 168.293 220.866 168.293H527.291C536.017 168.293 543.091 175.367 543.091 184.093V370.602C543.091 379.328 536.017 386.402 527.291 386.402Z" fill="#4145E7"/>
<path d="M220.866 377.712C216.945 377.712 213.756 374.522 213.756 370.602V184.093C213.756 180.172 216.946 176.983 220.866 176.983H527.291C531.211 176.983 534.401 180.173 534.401 184.093V370.602C534.401 374.523 531.211 377.712 527.291 377.712H220.866Z" fill="#45AAC7"/>
<path d="M395.697 382.559H352.46V435.405H395.697V382.559Z" fill="#4145E7"/>
<path d="M434.13 443.091H314.026C314.026 429.825 324.781 419.07 338.047 419.07H410.11C423.376 419.07 434.13 429.825 434.13 443.091Z" fill="#4145E7"/>
<path d="M334.967 301.34C324.961 311.355 318.769 325.176 318.769 340.451H253.788C253.788 307.233 267.256 277.161 289.022 255.395L334.967 301.34Z" fill="#373AC4" stroke="#45AAC7" stroke-width="3" stroke-miterlimit="10" stroke-linecap="round" stroke-linejoin="round"/>
<path d="M374.078 220.162V285.143C358.802 285.143 344.982 291.335 334.967 301.341L289.022 255.396C310.788 233.63 340.861 220.162 374.078 220.162Z" fill="#EB3D8C" stroke="#45AAC7" stroke-width="3" stroke-miterlimit="10" stroke-linecap="round" stroke-linejoin="round"/>
<path d="M459.135 255.395L413.19 301.34C403.175 291.334 389.354 285.142 374.079 285.142V220.161C407.297 220.162 437.369 233.63 459.135 255.395Z" fill="#FF8C00" stroke="#45AAC7" stroke-width="3" stroke-miterlimit="10" stroke-linecap="round" stroke-linejoin="round"/>
<path d="M494.368 340.452H429.387C429.387 325.176 423.195 311.356 413.189 301.341L459.134 255.396C480.9 277.161 494.368 307.234 494.368 340.452Z" fill="#39943A" stroke="#45AAC7" stroke-width="3" stroke-miterlimit="10" stroke-linecap="round" stroke-linejoin="round"/>
<path d="M262.966 207.465C261.501 206.677 260.349 205.585 259.51 204.187C258.672 202.79 258.252 201.21 258.252 199.448C258.252 197.686 258.671 196.106 259.51 194.708C260.349 193.311 261.501 192.218 262.966 191.43C264.431 190.642 266.079 190.248 267.909 190.248C269.451 190.248 270.845 190.519 272.09 191.061C273.335 191.603 274.381 192.382 275.228 193.399L272.586 195.838C271.383 194.449 269.892 193.755 268.113 193.755C267.011 193.755 266.029 193.996 265.165 194.479C264.301 194.962 263.628 195.635 263.145 196.499C262.662 197.363 262.42 198.346 262.42 199.447C262.42 200.549 262.662 201.531 263.145 202.395C263.628 203.259 264.301 203.933 265.165 204.415C266.029 204.898 267.012 205.139 268.113 205.139C269.892 205.139 271.383 204.436 272.586 203.03L275.228 205.47C274.381 206.504 273.331 207.291 272.077 207.833C270.823 208.375 269.425 208.647 267.884 208.647C266.07 208.647 264.431 208.253 262.966 207.465Z" fill="white"/>
<path d="M291.873 208.342L288.442 203.386H288.239H284.656V208.342H280.539V190.553H288.239C289.815 190.553 291.182 190.816 292.343 191.341C293.503 191.866 294.397 192.612 295.024 193.577C295.65 194.543 295.964 195.686 295.964 197.008C295.964 198.33 295.646 199.47 295.011 200.427C294.376 201.384 293.473 202.117 292.305 202.625L296.295 208.343H291.873V208.342ZM290.831 194.708C290.187 194.174 289.247 193.908 288.01 193.908H284.656V200.109H288.01C289.247 200.109 290.187 199.838 290.831 199.296C291.475 198.754 291.797 197.991 291.797 197.008C291.797 196.008 291.475 195.241 290.831 194.708Z" fill="white"/>
<path d="M315.532 205.038V208.342H301.758V190.553H315.201V193.857H305.849V197.72H314.108V200.922H305.849V205.039H315.532V205.038Z" fill="white"/>
<path d="M321.352 190.553H329.433C331.365 190.553 333.071 190.921 334.554 191.658C336.036 192.395 337.188 193.433 338.01 194.771C338.831 196.11 339.242 197.669 339.242 199.447C339.242 201.226 338.831 202.785 338.01 204.123C337.188 205.462 336.036 206.499 334.554 207.236C333.071 207.973 331.365 208.341 329.433 208.341H321.352V190.553ZM329.229 204.962C331.008 204.962 332.427 204.466 333.486 203.475C334.545 202.484 335.074 201.142 335.074 199.447C335.074 197.753 334.544 196.41 333.486 195.419C332.427 194.428 331.008 193.932 329.229 193.932H325.468V204.961H329.229V204.962Z" fill="white"/>
<path d="M344.883 190.553H349V208.342H344.883V190.553Z" fill="white"/>
<path d="M359.444 193.907H353.752V190.553H369.254V193.907H363.562V208.342H359.445V193.907H359.444Z" fill="white"/>
<path d="M385.506 208.075C384.192 207.694 383.138 207.198 382.342 206.588L383.739 203.487C384.502 204.046 385.407 204.495 386.458 204.834C387.509 205.173 388.559 205.342 389.609 205.342C390.778 205.342 391.642 205.168 392.202 204.821C392.761 204.474 393.04 204.012 393.04 203.436C393.04 203.013 392.875 202.661 392.545 202.381C392.215 202.102 391.791 201.877 391.274 201.708C390.756 201.539 390.058 201.352 389.177 201.149C387.822 200.827 386.712 200.505 385.848 200.183C384.984 199.862 384.243 199.345 383.624 198.633C383.005 197.922 382.696 196.973 382.696 195.787C382.696 194.754 382.975 193.818 383.535 192.979C384.094 192.141 384.936 191.476 386.063 190.984C387.19 190.493 388.566 190.247 390.193 190.247C391.328 190.247 392.437 190.383 393.522 190.654C394.606 190.925 395.555 191.315 396.368 191.823L395.098 194.949C393.454 194.017 391.811 193.551 390.168 193.551C389.016 193.551 388.164 193.737 387.613 194.11C387.062 194.483 386.788 194.974 386.788 195.584C386.788 196.194 387.105 196.647 387.741 196.943C388.376 197.24 389.345 197.532 390.65 197.82C392.005 198.142 393.115 198.464 393.979 198.786C394.843 199.108 395.584 199.616 396.203 200.31C396.821 201.005 397.131 201.945 397.131 203.131C397.131 204.147 396.847 205.075 396.28 205.914C395.713 206.752 394.861 207.418 393.726 207.909C392.59 208.4 391.21 208.646 389.583 208.646C388.178 208.647 386.818 208.456 385.506 208.075Z" fill="white"/>
<path d="M406.089 207.465C404.623 206.677 403.472 205.585 402.633 204.187C401.794 202.79 401.375 201.21 401.375 199.448C401.375 197.686 401.794 196.106 402.633 194.708C403.472 193.311 404.623 192.218 406.089 191.43C407.555 190.642 409.202 190.248 411.032 190.248C412.573 190.248 413.967 190.519 415.212 191.061C416.458 191.603 417.504 192.382 418.351 193.399L415.708 195.838C414.505 194.449 413.014 193.755 411.235 193.755C410.133 193.755 409.151 193.996 408.287 194.479C407.423 194.962 406.75 195.635 406.267 196.499C405.785 197.363 405.543 198.346 405.543 199.447C405.543 200.549 405.784 201.531 406.267 202.395C406.75 203.259 407.423 203.933 408.287 204.415C409.151 204.898 410.134 205.139 411.235 205.139C413.013 205.139 414.505 204.436 415.708 203.03L418.351 205.47C417.504 206.504 416.454 207.291 415.2 207.833C413.946 208.375 412.549 208.647 411.008 208.647C409.193 208.647 407.555 208.253 406.089 207.465Z" fill="white"/>
<path d="M426.902 207.452C425.42 206.656 424.26 205.559 423.421 204.161C422.582 202.764 422.163 201.192 422.163 199.447C422.163 197.702 422.582 196.131 423.421 194.733C424.26 193.336 425.42 192.239 426.902 191.442C428.385 190.646 430.049 190.248 431.896 190.248C433.742 190.248 435.403 190.646 436.877 191.442C438.352 192.239 439.512 193.336 440.358 194.733C441.206 196.131 441.629 197.703 441.629 199.447C441.629 201.192 441.205 202.763 440.358 204.161C439.511 205.559 438.351 206.656 436.877 207.452C435.403 208.249 433.742 208.647 431.896 208.647C430.05 208.647 428.385 208.249 426.902 207.452ZM434.742 204.415C435.59 203.932 436.255 203.259 436.737 202.395C437.22 201.531 437.462 200.549 437.462 199.447C437.462 198.346 437.221 197.363 436.737 196.499C436.255 195.635 435.59 194.961 434.742 194.479C433.895 193.996 432.946 193.755 431.896 193.755C430.845 193.755 429.896 193.996 429.049 194.479C428.201 194.962 427.537 195.635 427.054 196.499C426.572 197.363 426.33 198.346 426.33 199.447C426.33 200.549 426.571 201.531 427.054 202.395C427.537 203.259 428.201 203.933 429.049 204.415C429.896 204.898 430.845 205.139 431.896 205.139C432.946 205.14 433.895 204.898 434.742 204.415Z" fill="white"/>
<path d="M458.604 208.342L455.173 203.386H454.97H451.387V208.342H447.27V190.553H454.97C456.545 190.553 457.913 190.816 459.074 191.341C460.234 191.866 461.128 192.612 461.755 193.577C462.382 194.543 462.695 195.686 462.695 197.008C462.695 198.33 462.378 199.47 461.742 200.427C461.106 201.384 460.205 202.117 459.036 202.625L463.025 208.343H458.604V208.342ZM457.563 194.708C456.919 194.174 455.979 193.908 454.743 193.908H451.389V200.109H454.743C455.979 200.109 456.92 199.838 457.563 199.296C458.207 198.754 458.529 197.991 458.529 197.008C458.528 196.008 458.206 195.241 457.563 194.708Z" fill="white"/>
<path d="M482.263 205.038V208.342H468.49V190.553H481.933V193.857H472.581V197.72H480.84V200.922H472.581V205.039H482.263V205.038Z" fill="white"/>
<path d="M445.805 351.108H448.08V355.474C447.495 355.914 446.819 356.253 446.051 356.489C445.281 356.724 444.508 356.843 443.729 356.843C442.612 356.843 441.608 356.605 440.716 356.128C439.824 355.651 439.125 354.99 438.617 354.145C438.11 353.299 437.856 352.344 437.856 351.278C437.856 350.213 438.11 349.257 438.617 348.411C439.125 347.565 439.829 346.905 440.731 346.429C441.632 345.952 442.647 345.714 443.775 345.714C444.717 345.714 445.574 345.872 446.342 346.191C447.11 346.508 447.756 346.969 448.278 347.574L446.679 349.051C445.91 348.241 444.983 347.836 443.897 347.836C443.209 347.836 442.6 347.979 442.067 348.267C441.535 348.554 441.119 348.958 440.822 349.481C440.525 350.005 440.377 350.604 440.377 351.28C440.377 351.947 440.525 352.541 440.822 353.063C441.119 353.587 441.532 353.994 442.059 354.286C442.587 354.578 443.19 354.724 443.866 354.724C444.584 354.724 445.229 354.571 445.804 354.263V351.108H445.805Z" fill="white"/>
<path d="M452.576 356.12C451.678 355.639 450.977 354.975 450.469 354.129C449.962 353.284 449.708 352.333 449.708 351.277C449.708 350.221 449.962 349.271 450.469 348.425C450.977 347.579 451.678 346.916 452.576 346.434C453.472 345.952 454.479 345.712 455.596 345.712C456.713 345.712 457.718 345.952 458.61 346.434C459.502 346.916 460.204 347.58 460.715 348.425C461.228 349.271 461.485 350.221 461.485 351.277C461.485 352.333 461.228 353.284 460.715 354.129C460.203 354.975 459.501 355.639 458.61 356.12C457.718 356.602 456.714 356.843 455.596 356.843C454.479 356.843 453.473 356.602 452.576 356.12ZM457.318 354.283C457.831 353.991 458.233 353.584 458.525 353.06C458.817 352.538 458.964 351.944 458.964 351.277C458.964 350.611 458.817 350.016 458.525 349.494C458.233 348.972 457.831 348.564 457.318 348.272C456.805 347.979 456.232 347.834 455.596 347.834C454.96 347.834 454.387 347.979 453.874 348.272C453.361 348.564 452.959 348.971 452.667 349.494C452.375 350.016 452.229 350.611 452.229 351.277C452.229 351.944 452.375 352.538 452.667 353.06C452.959 353.584 453.361 353.991 453.874 354.283C454.387 354.575 454.96 354.721 455.596 354.721C456.232 354.721 456.806 354.575 457.318 354.283Z" fill="white"/>
<path d="M465.551 356.12C464.654 355.639 463.952 354.975 463.444 354.129C462.937 353.284 462.683 352.333 462.683 351.277C462.683 350.221 462.937 349.271 463.444 348.425C463.952 347.579 464.653 346.916 465.551 346.434C466.448 345.952 467.454 345.712 468.572 345.712C469.69 345.712 470.694 345.952 471.586 346.434C472.478 346.916 473.18 347.58 473.691 348.425C474.204 349.271 474.461 350.221 474.461 351.277C474.461 352.333 474.204 353.284 473.691 354.129C473.179 354.975 472.477 355.639 471.586 356.12C470.694 356.602 469.689 356.843 468.572 356.843C467.455 356.843 466.447 356.602 465.551 356.12ZM470.293 354.283C470.806 353.991 471.208 353.584 471.5 353.06C471.792 352.538 471.938 351.944 471.938 351.277C471.938 350.611 471.792 350.016 471.5 349.494C471.208 348.972 470.806 348.564 470.293 348.272C469.78 347.979 469.207 347.834 468.571 347.834C467.935 347.834 467.362 347.979 466.849 348.272C466.336 348.564 465.934 348.971 465.642 349.494C465.35 350.016 465.204 350.611 465.204 351.277C465.204 351.944 465.35 352.538 465.642 353.06C465.934 353.584 466.336 353.991 466.849 354.283C467.362 354.575 467.935 354.721 468.571 354.721C469.207 354.721 469.78 354.575 470.293 354.283Z" fill="white"/>
<path d="M476.335 345.897H481.224C482.392 345.897 483.424 346.121 484.322 346.566C485.218 347.012 485.916 347.64 486.413 348.45C486.91 349.26 487.158 350.202 487.158 351.278C487.158 352.354 486.91 353.298 486.413 354.107C485.916 354.917 485.219 355.545 484.322 355.99C483.425 356.436 482.392 356.659 481.224 356.659H476.335V345.897ZM481.101 354.613C482.177 354.613 483.036 354.313 483.676 353.714C484.316 353.114 484.636 352.303 484.636 351.277C484.636 350.253 484.316 349.44 483.676 348.84C483.035 348.24 482.177 347.941 481.101 347.941H478.826V354.613H481.101Z" fill="white"/>
<path d="M371.084 315.296L450.971 301.881C453.065 301.529 455.048 302.942 455.399 305.036C455.707 306.871 454.658 308.621 452.985 309.262L377.359 338.291C371.183 340.662 364.255 337.577 361.884 331.401C359.513 325.225 362.598 318.297 368.774 315.926C369.516 315.642 370.331 315.427 371.084 315.296Z" fill="white"/>
<path d="M371.938 333.526C375.478 333.526 378.347 330.657 378.347 327.117C378.347 323.577 375.478 320.708 371.938 320.708C368.398 320.708 365.529 323.577 365.529 327.117C365.529 330.657 368.398 333.526 371.938 333.526Z" fill="#373AC4"/>
<g opacity="0.3">
<mask id="mask0_0_1" style="mask-type:luminance" maskUnits="userSpaceOnUse" x="133" y="166" width="363" height="363">
<path d="M135.193 310.215C132.421 307.442 132.421 302.932 135.193 300.16L267.074 168.279C269.846 165.507 274.357 165.507 277.129 168.279L493.802 384.952C496.574 387.724 496.574 392.236 493.802 395.007L361.921 526.888C359.149 529.66 354.638 529.66 351.866 526.888L135.193 310.215Z" fill="white"/>
</mask>
<g mask="url(#mask0_0_1)">
<path d="M405.454 135.626L364.418 94.5903L113.546 345.462L154.582 386.498L405.454 135.626Z" fill="#A9ECF4"/>
</g>
<mask id="mask1_0_1" style="mask-type:luminance" maskUnits="userSpaceOnUse" x="260" y="56" width="363" height="364">
<path d="M262.266 200.517C259.493 197.745 259.494 193.234 262.266 190.462L394.146 58.5819C396.919 55.8094 401.429 55.8101 404.201 58.5819L620.874 275.255C623.646 278.027 623.646 282.538 620.874 285.31L488.994 417.191C486.221 419.963 481.711 419.962 478.939 417.191L262.266 200.517Z" fill="white"/>
</mask>
<g mask="url(#mask1_0_1)">
<path d="M601.406 234.166L560.37 193.13L309.498 444.002L350.534 485.038L601.406 234.166Z" fill="#A9ECF4"/>
</g>
<mask id="mask2_0_1" style="mask-type:luminance" maskUnits="userSpaceOnUse" x="169" y="131" width="363" height="363">
<path d="M171.263 275.158C168.491 272.386 168.491 267.875 171.263 265.103L303.144 133.223C305.916 130.45 310.427 130.451 313.199 133.223L529.872 349.896C532.644 352.668 532.644 357.179 529.872 359.951L397.991 491.831C395.219 494.604 390.708 494.603 387.936 491.831L171.263 275.158Z" fill="white"/>
</mask>
<g mask="url(#mask2_0_1)">
<path d="M470.046 136.037L450.372 116.363L169.659 397.076L189.333 416.75L470.046 136.037Z" fill="#A9ECF4"/>
</g>
</g>
<path d="M267.918 346.373C268.62 346.691 269.161 347.143 269.54 347.727C269.919 348.311 270.109 349.002 270.109 349.802C270.109 350.591 269.919 351.281 269.54 351.869C269.161 352.459 268.62 352.91 267.918 353.223C267.216 353.536 266.388 353.692 265.435 353.692H263.267V356.659H260.776V345.897H265.434C266.388 345.897 267.216 346.056 267.918 346.373ZM267.003 351.178C267.393 350.855 267.588 350.397 267.588 349.802C267.588 349.198 267.393 348.734 267.003 348.41C266.614 348.088 266.045 347.926 265.297 347.926H263.268V351.662H265.297C266.045 351.662 266.614 351.5 267.003 351.178Z" fill="white"/>
<path d="M274.221 356.12C273.324 355.639 272.622 354.975 272.115 354.129C271.608 353.284 271.354 352.333 271.354 351.277C271.354 350.221 271.607 349.271 272.115 348.425C272.622 347.579 273.324 346.916 274.221 346.434C275.117 345.952 276.124 345.712 277.241 345.712C278.358 345.712 279.363 345.952 280.254 346.434C281.146 346.916 281.848 347.58 282.36 348.425C282.872 349.271 283.129 350.221 283.129 351.277C283.129 352.333 282.873 353.284 282.36 354.129C281.847 354.975 281.146 355.639 280.254 356.12C279.362 356.602 278.358 356.843 277.241 356.843C276.124 356.843 275.117 356.602 274.221 356.12ZM278.963 354.283C279.475 353.991 279.878 353.584 280.17 353.06C280.462 352.538 280.609 351.944 280.609 351.277C280.609 350.611 280.462 350.016 280.17 349.494C279.878 348.972 279.476 348.564 278.963 348.272C278.45 347.979 277.877 347.834 277.241 347.834C276.606 347.834 276.032 347.979 275.519 348.272C275.006 348.564 274.605 348.971 274.312 349.494C274.02 350.016 273.873 350.611 273.873 351.277C273.873 351.944 274.019 352.538 274.312 353.06C274.604 353.584 275.006 353.991 275.519 354.283C276.032 354.575 276.605 354.721 277.241 354.721C277.877 354.721 278.451 354.575 278.963 354.283Z" fill="white"/>
<path d="M287.196 356.12C286.299 355.639 285.597 354.975 285.09 354.129C284.583 353.284 284.329 352.333 284.329 351.277C284.329 350.221 284.582 349.271 285.09 348.425C285.597 347.579 286.299 346.916 287.196 346.434C288.092 345.952 289.099 345.712 290.216 345.712C291.333 345.712 292.338 345.952 293.229 346.434C294.121 346.916 294.823 347.58 295.335 348.425C295.847 349.271 296.104 350.221 296.104 351.277C296.104 352.333 295.848 353.284 295.335 354.129C294.822 354.975 294.121 355.639 293.229 356.12C292.337 356.602 291.333 356.843 290.216 356.843C289.099 356.843 288.092 356.602 287.196 356.12ZM291.939 354.283C292.451 353.991 292.853 353.584 293.145 353.06C293.437 352.538 293.584 351.944 293.584 351.277C293.584 350.611 293.438 350.016 293.145 349.494C292.853 348.972 292.451 348.564 291.939 348.272C291.426 347.979 290.853 347.834 290.217 347.834C289.582 347.834 289.008 347.979 288.495 348.272C287.982 348.564 287.58 348.971 287.288 349.494C286.996 350.016 286.849 350.611 286.849 351.277C286.849 351.944 286.995 352.538 287.288 353.06C287.58 353.584 287.982 353.991 288.495 354.283C289.008 354.575 289.581 354.721 290.217 354.721C290.852 354.721 291.426 354.575 291.939 354.283Z" fill="white"/>
<path d="M304.836 356.658L302.761 353.66H302.638H300.471V356.658H297.98V345.896H302.638C303.591 345.896 304.419 346.055 305.121 346.372C305.823 346.69 306.364 347.142 306.743 347.726C307.122 348.31 307.312 349.001 307.312 349.801C307.312 350.601 307.12 351.289 306.736 351.868C306.352 352.447 305.806 352.89 305.099 353.198L307.513 356.657L304.836 356.658ZM304.206 348.41C303.817 348.088 303.248 347.926 302.5 347.926H300.471V351.678H302.5C303.248 351.678 303.817 351.514 304.206 351.186C304.596 350.858 304.79 350.397 304.79 349.802C304.79 349.197 304.596 348.733 304.206 348.41Z" fill="white"/>
<path d="M231.178 274.536C229.71 276.829 227.52 278.284 225.074 278.284C220.653 278.284 217.069 273.531 217.069 267.668C217.069 264.613 218.042 261.859 219.6 259.923" stroke="#4145E7" stroke-width="5" stroke-miterlimit="10" stroke-linecap="round" stroke-linejoin="round"/>
<path d="M196.623 274.536C195.155 276.829 192.965 278.284 190.519 278.284C186.098 278.284 182.514 273.531 182.514 267.668C182.514 264.613 183.487 261.859 185.045 259.923" stroke="#4145E7" stroke-width="5" stroke-miterlimit="10" stroke-linecap="round" stroke-linejoin="round"/>
<path d="M162.067 274.536C160.599 276.829 158.409 278.284 155.963 278.284C151.542 278.284 147.958 273.531 147.958 267.668C147.958 264.613 148.931 261.859 150.489 259.923" stroke="#4145E7" stroke-width="5" stroke-miterlimit="10" stroke-linecap="round" stroke-linejoin="round"/>
<path d="M127.512 274.536C126.044 276.829 123.854 278.284 121.408 278.284C116.987 278.284 113.403 273.531 113.403 267.668C113.403 264.613 114.376 261.859 115.934 259.923" stroke="#4145E7" stroke-width="5" stroke-miterlimit="10" stroke-linecap="round" stroke-linejoin="round"/>
<path d="M233.719 271.949L105.069 271.906L91.124 443.863H219.798L233.719 271.949Z" fill="#FFAA00"/>
<path d="M105.069 271.906L110.853 267.532H233.39L247.651 443.863H118.977L105.069 271.906Z" fill="#FEE7A3"/>
<path d="M110.853 267.532H239.527L253.789 443.863H125.114L110.853 267.532Z" fill="#FFE363"/>
<path d="M115.934 259.923C117.366 258.143 119.291 257.053 121.408 257.053C125.829 257.053 129.413 261.806 129.413 267.669C129.413 270.288 128.698 272.686 127.512 274.537" stroke="#4145E7" stroke-width="5" stroke-miterlimit="10" stroke-linecap="round" stroke-linejoin="round"/>
<path d="M150.489 259.923C151.921 258.143 153.846 257.053 155.963 257.053C160.384 257.053 163.968 261.806 163.968 267.669C163.968 270.288 163.253 272.686 162.067 274.537" stroke="#4145E7" stroke-width="5" stroke-miterlimit="10" stroke-linecap="round" stroke-linejoin="round"/>
<path d="M185.044 259.923C186.476 258.143 188.401 257.053 190.518 257.053C194.939 257.053 198.523 261.806 198.523 267.669C198.523 270.288 197.808 272.686 196.622 274.537" stroke="#4145E7" stroke-width="5" stroke-miterlimit="10" stroke-linecap="round" stroke-linejoin="round"/>
<path d="M219.599 259.923C221.031 258.143 222.956 257.053 225.073 257.053C229.494 257.053 233.078 261.806 233.078 267.669C233.078 270.288 232.363 272.686 231.177 274.537" stroke="#4145E7" stroke-width="5" stroke-miterlimit="10" stroke-linecap="round" stroke-linejoin="round"/>
<path d="M134.422 306.33H124.768C123.881 306.33 123.149 305.636 123.101 304.751L122.606 295.615C122.554 294.659 123.316 293.855 124.273 293.855H133.927C134.814 293.855 135.546 294.549 135.594 295.434L136.089 304.57C136.141 305.526 135.38 306.33 134.422 306.33Z" fill="#FEF2CE"/>
<path d="M227.658 302.885H148.06C146.79 302.885 145.761 301.856 145.761 300.587C145.761 299.318 146.79 298.288 148.06 298.288H227.658C228.927 298.288 229.956 299.317 229.956 300.587C229.957 301.856 228.928 302.885 227.658 302.885Z" fill="#FEF2CE"/>
<path d="M136.8 336.924H127.146C126.259 336.924 125.527 336.23 125.479 335.345L124.984 326.209C124.932 325.253 125.694 324.449 126.651 324.449H136.305C137.192 324.449 137.924 325.143 137.972 326.028L138.467 335.164C138.519 336.12 137.758 336.924 136.8 336.924Z" fill="#FEF2CE"/>
<path d="M230.036 333.479H150.438C149.169 333.479 148.139 332.45 148.139 331.18C148.139 329.911 149.168 328.882 150.438 328.882H230.036C231.305 328.882 232.335 329.911 232.335 331.18C232.335 332.45 231.306 333.479 230.036 333.479Z" fill="#FEF2CE"/>
<path d="M139.178 367.518H129.524C128.637 367.518 127.905 366.824 127.857 365.939L127.362 356.803C127.31 355.847 128.072 355.043 129.029 355.043H138.683C139.57 355.043 140.302 355.737 140.35 356.622L140.845 365.758C140.897 366.714 140.135 367.518 139.178 367.518Z" fill="#FEF2CE"/>
<path d="M232.414 364.074H152.816C151.547 364.074 150.518 363.045 150.518 361.775C150.518 360.506 151.547 359.477 152.816 359.477H232.414C233.683 359.477 234.712 360.506 234.712 361.775C234.712 363.044 233.683 364.074 232.414 364.074Z" fill="#FEF2CE"/>
<path d="M141.556 398.112H131.902C131.015 398.112 130.283 397.418 130.235 396.533L129.74 387.397C129.688 386.441 130.45 385.637 131.407 385.637H141.061C141.948 385.637 142.68 386.331 142.728 387.216L143.223 396.352C143.275 397.309 142.513 398.112 141.556 398.112Z" fill="#FEF2CE"/>
<path d="M234.792 394.668H155.194C153.925 394.668 152.896 393.639 152.896 392.369C152.896 391.1 153.925 390.071 155.194 390.071H234.792C236.062 390.071 237.091 391.1 237.091 392.369C237.09 393.639 236.061 394.668 234.792 394.668Z" fill="#FEF2CE"/>
<path d="M143.933 428.707H134.279C133.392 428.707 132.66 428.013 132.612 427.128L132.117 417.992C132.065 417.036 132.827 416.232 133.784 416.232H143.438C144.325 416.232 145.057 416.926 145.105 417.811L145.6 426.947C145.652 427.903 144.891 428.707 143.933 428.707Z" fill="#FEF2CE"/>
<path d="M237.169 425.262H157.571C156.302 425.262 155.273 424.233 155.273 422.964C155.273 421.694 156.302 420.665 157.571 420.665H237.169C238.439 420.665 239.468 421.694 239.468 422.964C239.468 424.233 238.439 425.262 237.169 425.262Z" fill="#FEF2CE"/>
<path d="M125.723 296.862L129.685 302.656L139.368 286.153" stroke="#39943A" stroke-width="3" stroke-miterlimit="10" stroke-linecap="round" stroke-linejoin="round"/>
<path d="M128.438 327.685L132.399 333.479L142.082 316.976" stroke="#39943A" stroke-width="3" stroke-miterlimit="10" stroke-linecap="round" stroke-linejoin="round"/>
<path d="M130.891 358.155L134.853 363.949L144.536 347.446" stroke="#39943A" stroke-width="3" stroke-miterlimit="10" stroke-linecap="round" stroke-linejoin="round"/>
<path d="M133.084 388.874L137.045 394.668L146.729 378.165" stroke="#39943A" stroke-width="3" stroke-miterlimit="10" stroke-linecap="round" stroke-linejoin="round"/>
<path d="M135.588 420.585L139.549 426.379L149.232 409.876" stroke="#39943A" stroke-width="3" stroke-miterlimit="10" stroke-linecap="round" stroke-linejoin="round"/>
<path d="M617.324 280.357L568.597 280.411L568.83 382.299L649.99 382.113L649.816 306.029C649.783 291.81 638.23 280.309 624.011 280.342L617.324 280.357Z" fill="#FFAA00"/>
<path d="M623.323 280.307V280.365C611.966 281.105 602.982 290.55 602.982 302.099V320.432H514.105V302.099C514.105 290.06 523.857 280.307 535.897 280.307H623.323Z" fill="#FFE363"/>
<path d="M605.153 443.091H525.349C521.535 443.091 518.378 440.126 518.138 436.32L510.994 322.929C510.732 318.768 514.036 315.25 518.205 315.25H612.297C616.466 315.25 619.77 318.769 619.508 322.929L612.364 436.32C612.124 440.126 608.967 443.091 605.153 443.091Z" fill="#FF4298"/>
<path d="M597.098 443.091H517.294C513.48 443.091 510.323 440.126 510.083 436.32L502.939 322.929C502.677 318.768 505.981 315.25 510.15 315.25H604.242C608.411 315.25 611.715 318.769 611.453 322.929L604.309 436.32C604.069 440.126 600.912 443.091 597.098 443.091Z" fill="#FF7CB7"/>
<path d="M595.679 336.43H518.714C514.842 336.43 511.704 333.291 511.704 329.42C511.704 325.548 514.843 322.41 518.714 322.41H595.679C599.551 322.41 602.689 325.549 602.689 329.42C602.689 333.292 599.551 336.43 595.679 336.43Z" fill="#EB3D8C"/>
<path d="M526.988 353.31H518.463C516.057 353.31 514.106 351.359 514.106 348.953V345.353C514.106 342.947 516.057 340.996 518.463 340.996H526.988C529.394 340.996 531.345 342.947 531.345 345.353V348.953C531.345 351.359 529.394 353.31 526.988 353.31Z" fill="#FF54A2"/>
<path d="M549.969 353.31H541.444C539.038 353.31 537.087 351.359 537.087 348.953V345.353C537.087 342.947 539.038 340.996 541.444 340.996H549.969C552.375 340.996 554.326 342.947 554.326 345.353V348.953C554.326 351.359 552.375 353.31 549.969 353.31Z" fill="#EB3D8C"/>
<path d="M572.949 353.31H564.424C562.018 353.31 560.067 351.359 560.067 348.953V345.353C560.067 342.947 562.018 340.996 564.424 340.996H572.949C575.356 340.996 577.306 342.947 577.306 345.353V348.953C577.307 351.359 575.356 353.31 572.949 353.31Z" fill="#EB3D8C"/>
<path d="M595.93 353.31H587.405C584.998 353.31 583.048 351.359 583.048 348.953V345.353C583.048 342.947 584.999 340.996 587.405 340.996H595.93C598.336 340.996 600.287 342.947 600.287 345.353V348.953C600.288 351.359 598.337 353.31 595.93 353.31Z" fill="#EB3D8C"/>
<path d="M526.988 373.413H518.463C516.057 373.413 514.106 371.462 514.106 369.056V365.456C514.106 363.049 516.057 361.099 518.463 361.099H526.988C529.394 361.099 531.345 363.05 531.345 365.456V369.056C531.345 371.462 529.394 373.413 526.988 373.413Z" fill="#EB3D8C"/>
<path d="M549.969 373.413H541.444C539.038 373.413 537.087 371.462 537.087 369.056V365.456C537.087 363.049 539.038 361.099 541.444 361.099H549.969C552.375 361.099 554.326 363.05 554.326 365.456V369.056C554.326 371.462 552.375 373.413 549.969 373.413Z" fill="#EB3D8C"/>
<path d="M572.949 373.413H564.424C562.018 373.413 560.067 371.462 560.067 369.056V365.456C560.067 363.049 562.018 361.099 564.424 361.099H572.949C575.356 361.099 577.306 363.05 577.306 365.456V369.056C577.307 371.462 575.356 373.413 572.949 373.413Z" fill="#EB3D8C"/>
<path d="M595.93 373.413H587.405C584.998 373.413 583.048 371.462 583.048 369.056V365.456C583.048 363.049 584.999 361.099 587.405 361.099H595.93C598.336 361.099 600.287 363.05 600.287 365.456V369.056C600.288 371.462 598.337 373.413 595.93 373.413Z" fill="#EB3D8C"/>
<path d="M526.988 393.516H518.463C516.057 393.516 514.106 391.565 514.106 389.159V385.559C514.106 383.153 516.057 381.202 518.463 381.202H526.988C529.394 381.202 531.345 383.153 531.345 385.559V389.159C531.345 391.565 529.394 393.516 526.988 393.516Z" fill="#EB3D8C"/>
<path d="M549.969 393.516H541.444C539.038 393.516 537.087 391.565 537.087 389.159V385.559C537.087 383.153 539.038 381.202 541.444 381.202H549.969C552.375 381.202 554.326 383.153 554.326 385.559V389.159C554.326 391.565 552.375 393.516 549.969 393.516Z" fill="#EB3D8C"/>
<path d="M572.949 393.516H564.424C562.018 393.516 560.067 391.565 560.067 389.159V385.559C560.067 383.153 562.018 381.202 564.424 381.202H572.949C575.356 381.202 577.306 383.153 577.306 385.559V389.159C577.307 391.565 575.356 393.516 572.949 393.516Z" fill="#EB3D8C"/>
<path d="M595.93 393.516H587.405C584.998 393.516 583.048 391.565 583.048 389.159V385.559C583.048 383.153 584.999 381.202 587.405 381.202H595.93C598.336 381.202 600.287 383.153 600.287 385.559V389.159C600.288 391.565 598.337 393.516 595.93 393.516Z" fill="#EB3D8C"/>
<path d="M526.988 413.619H518.463C516.057 413.619 514.106 411.668 514.106 409.262V405.662C514.106 403.255 516.057 401.305 518.463 401.305H526.988C529.394 401.305 531.345 403.256 531.345 405.662V409.262C531.345 411.668 529.394 413.619 526.988 413.619Z" fill="#EB3D8C"/>
<path d="M549.969 413.619H541.444C539.038 413.619 537.087 411.668 537.087 409.262V405.662C537.087 403.255 539.038 401.305 541.444 401.305H549.969C552.375 401.305 554.326 403.256 554.326 405.662V409.262C554.326 411.668 552.375 413.619 549.969 413.619Z" fill="#EB3D8C"/>
<path d="M572.949 413.619H564.424C562.018 413.619 560.067 411.668 560.067 409.262V405.662C560.067 403.255 562.018 401.305 564.424 401.305H572.949C575.356 401.305 577.306 403.256 577.306 405.662V409.262C577.307 411.668 575.356 413.619 572.949 413.619Z" fill="#EB3D8C"/>
<path d="M572.949 433.722H564.424C562.018 433.722 560.067 431.771 560.067 429.365V425.765C560.067 423.358 562.018 421.408 564.424 421.408H572.949C575.356 421.408 577.306 423.359 577.306 425.765V429.365C577.307 431.771 575.356 433.722 572.949 433.722Z" fill="#EB3D8C"/>
<path d="M593.568 433.722H589.768C586.057 433.722 583.048 430.713 583.048 427.002V408.024C583.048 404.313 586.056 401.304 589.768 401.304H593.568C597.279 401.304 600.288 404.313 600.288 408.024V427.002C600.288 430.713 597.279 433.722 593.568 433.722Z" fill="#FF54A2"/>
<path d="M550.445 433.722H517.987C515.843 433.722 514.106 431.984 514.106 429.841V425.289C514.106 423.145 515.844 421.408 517.987 421.408H550.445C552.589 421.408 554.326 423.146 554.326 425.289V429.841C554.326 431.984 552.588 433.722 550.445 433.722Z" fill="#FF54A2"/>
<path d="M627.488 138.983L630.614 136.915C631.178 138.041 631.776 138.923 632.408 139.561C633.041 140.199 633.749 140.633 634.533 140.864L635.895 133.962C633.581 132.971 631.96 131.821 631.034 130.515C630.107 129.208 629.819 127.672 630.167 125.907C630.532 124.058 631.449 122.698 632.92 121.826C634.391 120.954 636.235 120.677 638.453 120.994L638.885 118.804L640.887 119.199L640.455 121.389C641.764 121.778 642.908 122.358 643.885 123.13C644.862 123.901 645.721 124.9 646.461 126.127L643.38 128.302C642.938 127.331 642.427 126.562 641.846 125.994C641.265 125.427 640.576 125.031 639.78 124.809L638.543 131.08C641.07 132.266 642.791 133.528 643.706 134.865C644.621 136.202 644.891 137.822 644.516 139.723C644.131 141.677 643.157 143.114 641.595 144.033C640.033 144.953 638.112 145.215 635.833 144.82L635.202 148.019L633.2 147.624L633.831 144.425C632.347 143.98 631.083 143.307 630.038 142.408C628.992 141.509 628.142 140.367 627.488 138.983ZM636.674 130.007L637.809 124.255C636.675 124.086 635.767 124.179 635.085 124.536C634.404 124.893 633.979 125.496 633.811 126.347C633.649 127.166 633.791 127.86 634.235 128.428C634.68 128.997 635.493 129.523 636.674 130.007ZM636.512 141.369C637.678 141.599 638.609 141.529 639.304 141.159C639.999 140.789 640.441 140.126 640.63 139.169C640.821 138.203 640.693 137.397 640.247 136.753C639.801 136.108 638.975 135.525 637.768 135.003L636.512 141.369Z" fill="#3AB53D"/>
<path d="M655.416 426.468L657.042 423.091C658.103 423.77 659.068 424.221 659.938 424.445C660.808 424.669 661.639 424.679 662.43 424.477L660.066 417.851C657.571 418.184 655.59 418.027 654.125 417.379C652.66 416.731 651.625 415.559 651.021 413.865C650.388 412.09 650.479 410.452 651.296 408.95C652.113 407.448 653.555 406.265 655.623 405.402L654.873 403.299L656.795 402.613L657.545 404.716C658.869 404.38 660.148 404.293 661.383 404.455C662.617 404.617 663.866 405.035 665.13 405.71L663.597 409.156C662.72 408.548 661.887 408.149 661.098 407.959C660.308 407.769 659.514 407.782 658.716 407.999L660.864 414.02C663.642 413.745 665.766 413.948 667.237 414.628C668.708 415.309 669.768 416.561 670.42 418.386C671.089 420.262 670.988 421.995 670.118 423.584C669.247 425.174 667.732 426.382 665.571 427.21L666.667 430.281L664.745 430.967L663.649 427.896C662.146 428.273 660.716 428.343 659.358 428.105C658 427.867 656.686 427.322 655.416 426.468ZM658.711 414.055L656.741 408.534C655.68 408.97 654.948 409.515 654.545 410.17C654.142 410.825 654.087 411.561 654.378 412.378C654.659 413.164 655.135 413.688 655.808 413.948C656.481 414.208 657.449 414.244 658.711 414.055ZM664.389 423.897C665.508 423.498 666.272 422.961 666.679 422.287C667.086 421.613 667.127 420.817 666.799 419.899C666.468 418.971 665.946 418.345 665.233 418.019C664.52 417.694 663.512 417.616 662.208 417.785L664.389 423.897Z" fill="#3AB53D"/>
<path d="M53.576 278.29L55.484 275.064C56.483 275.831 57.407 276.363 58.254 276.66C59.102 276.957 59.929 277.039 60.735 276.904L58.944 270.101C56.429 270.221 54.469 269.895 53.065 269.124C51.661 268.353 50.73 267.098 50.272 265.358C49.792 263.536 50.023 261.911 50.965 260.484C51.907 259.057 53.445 258.002 55.579 257.318L55.011 255.159L56.984 254.64L57.552 256.799C58.899 256.577 60.182 256.599 61.398 256.866C62.614 257.133 63.823 257.656 65.025 258.436L63.204 261.739C62.383 261.058 61.587 260.59 60.816 260.333C60.045 260.077 59.253 260.022 58.44 260.17L60.067 266.352C62.858 266.315 64.958 266.698 66.365 267.501C67.772 268.304 68.722 269.643 69.216 271.517C69.723 273.443 69.475 275.161 68.472 276.671C67.468 278.181 65.856 279.256 63.633 279.896L64.463 283.049L62.49 283.568L61.66 280.415C60.131 280.663 58.7 280.61 57.367 280.258C56.033 279.904 54.77 279.249 53.576 278.29ZM57.918 266.202L56.426 260.533C55.332 260.877 54.556 261.357 54.099 261.976C53.642 262.594 53.524 263.323 53.744 264.162C53.957 264.97 54.387 265.532 55.035 265.848C55.683 266.165 56.644 266.283 57.918 266.202ZM62.736 276.493C63.885 276.191 64.692 275.721 65.155 275.084C65.618 274.447 65.726 273.658 65.478 272.715C65.227 271.763 64.761 271.094 64.078 270.709C63.395 270.324 62.397 270.16 61.084 270.218L62.736 276.493Z" fill="#3AB53D"/>
<path d="M378.687 98.936L380.596 95.711C381.595 96.478 382.518 97.011 383.365 97.308C384.213 97.606 385.04 97.687 385.845 97.553L384.057 90.749C381.542 90.867 379.582 90.541 378.179 89.769C376.775 88.998 375.845 87.742 375.388 86.002C374.909 84.18 375.141 82.555 376.084 81.128C377.026 79.701 378.565 78.647 380.699 77.964L380.132 75.805L382.105 75.287L382.672 77.446C384.02 77.225 385.302 77.248 386.518 77.515C387.734 77.782 388.943 78.306 390.144 79.086L388.321 82.388C387.5 81.707 386.704 81.238 385.934 80.981C385.163 80.724 384.371 80.669 383.558 80.817L385.183 87C387.974 86.964 390.074 87.348 391.48 88.152C392.887 88.956 393.836 90.295 394.329 92.169C394.835 94.095 394.586 95.813 393.582 97.322C392.578 98.831 390.965 99.906 388.741 100.545L389.569 103.698L387.596 104.217L386.767 101.064C385.238 101.311 383.807 101.258 382.474 100.905C381.142 100.551 379.879 99.895 378.687 98.936ZM383.034 86.85L381.544 81.18C380.45 81.523 379.674 82.003 379.216 82.622C378.759 83.24 378.64 83.969 378.86 84.808C379.072 85.616 379.502 86.178 380.15 86.495C380.799 86.812 381.76 86.93 383.034 86.85ZM387.848 97.143C388.998 96.841 389.804 96.372 390.268 95.735C390.732 95.098 390.84 94.309 390.592 93.366C390.342 92.413 389.875 91.744 389.193 91.359C388.511 90.974 387.513 90.81 386.199 90.867L387.848 97.143Z" fill="#3AB53D"/>
<path d="M580.265 167.288L567.132 180.004C566.592 180.527 566.578 181.389 567.101 181.929C567.624 182.469 568.486 182.483 569.026 181.96C569.035 181.951 569.048 181.938 569.057 181.929L581.773 168.796C586.17 172.433 592.693 172.197 596.81 168.08C601.181 163.709 601.181 156.622 596.81 152.251C592.439 147.88 585.352 147.88 580.981 152.251C576.865 156.367 576.628 162.89 580.265 167.288ZM582.476 153.746C586.016 150.206 591.775 150.206 595.315 153.746C598.855 157.286 598.855 163.045 595.315 166.585C591.775 170.125 586.016 170.125 582.476 166.585C578.936 163.045 578.936 157.285 582.476 153.746Z" fill="#9698ED"/>
<path d="M55.026 376.2L41.893 388.916C41.353 389.439 41.339 390.301 41.862 390.841C42.385 391.381 43.247 391.395 43.787 390.872C43.796 390.863 43.809 390.85 43.818 390.841L56.534 377.708C60.931 381.345 67.454 381.109 71.571 376.992C75.942 372.621 75.942 365.534 71.571 361.163C67.2 356.792 60.113 356.792 55.742 361.163C51.625 365.28 51.389 371.803 55.026 376.2ZM57.236 362.658C60.776 359.118 66.535 359.118 70.075 362.658C73.615 366.198 73.615 371.957 70.075 375.497C66.535 379.037 60.776 379.037 57.236 375.497C53.697 371.957 53.697 366.198 57.236 362.658Z" fill="#9698ED"/>
<path d="M118.355 118.495C113.984 114.124 106.897 114.124 102.526 118.495C98.155 122.866 98.155 129.953 102.526 134.324C106.643 138.441 113.166 138.677 117.563 135.04L130.279 148.173C130.288 148.182 130.301 148.195 130.31 148.204C130.85 148.727 131.712 148.713 132.235 148.173C132.758 147.633 132.744 146.771 132.204 146.248L119.071 133.532C122.708 129.135 122.472 122.611 118.355 118.495ZM116.86 132.829C113.32 136.369 107.561 136.369 104.021 132.829C100.481 129.289 100.481 123.53 104.021 119.99C107.561 116.45 113.32 116.45 116.86 119.99C120.4 123.529 120.4 129.289 116.86 132.829Z" fill="#9698ED"/>
<path d="M691.683 350.667C687.312 346.296 680.225 346.296 675.854 350.667C671.483 355.038 671.483 362.125 675.854 366.496C679.971 370.613 686.494 370.849 690.891 367.212L703.607 380.345C703.616 380.354 703.629 380.367 703.638 380.376C704.178 380.899 705.04 380.885 705.563 380.345C706.086 379.805 706.072 378.943 705.532 378.42L692.399 365.704C696.036 361.306 695.8 354.783 691.683 350.667ZM690.188 365C686.648 368.54 680.889 368.54 677.349 365C673.809 361.46 673.809 355.701 677.349 352.161C680.889 348.621 686.648 348.621 690.188 352.161C693.728 355.701 693.728 361.461 690.188 365Z" fill="#9698ED"/>
<path d="M441.052 79.114H437.889V93.033H441.052V79.114Z" fill="#E6E6FF"/>
<path d="M446.855 74.627H443.692V93.033H446.855V74.627Z" fill="#E6E6FF"/>
<path d="M452.659 71.273H449.496V93.033H452.659V71.273Z" fill="#E6E6FF"/>
<path d="M458.462 82.631H455.299V93.033H458.462V82.631Z" fill="#E6E6FF"/>
<path d="M464.265 85.569H461.102V93.032H464.265V85.569Z" fill="#E6E6FF"/>
<path d="M470.068 87.832H466.905V93.033H470.068V87.832Z" fill="#E6E6FF"/>
<path d="M475.871 85.004H472.708V93.032H475.871V85.004Z" fill="#E6E6FF"/>
<path d="M481.674 82.631H478.511V93.033H481.674V82.631Z" fill="#E6E6FF"/>
<path d="M487.477 77.715H484.314V93.033H487.477V77.715Z" fill="#E6E6FF"/>
<path d="M646.629 187.209H643.466V201.128H646.629V187.209Z" fill="#E6E6FF"/>
<path d="M652.432 182.722H649.269V201.128H652.432V182.722Z" fill="#E6E6FF"/>
<path d="M658.235 179.368H655.072V201.128H658.235V179.368Z" fill="#E6E6FF"/>
<path d="M664.038 190.726H660.875V201.128H664.038V190.726Z" fill="#E6E6FF"/>
<path d="M669.841 193.664H666.678V201.127H669.841V193.664Z" fill="#E6E6FF"/>
<path d="M675.644 195.926H672.481V201.127H675.644V195.926Z" fill="#E6E6FF"/>
<path d="M681.447 193.099H678.284V201.127H681.447V193.099Z" fill="#E6E6FF"/>
<path d="M687.251 190.726H684.088V201.128H687.251V190.726Z" fill="#E6E6FF"/>
<path d="M693.054 185.809H689.891V201.127H693.054V185.809Z" fill="#E6E6FF"/>
<path d="M94.3613 185.088H97.5243V171.169H94.3613V185.088Z" fill="#E6E6FF"/>
<path d="M88.5577 185.088L91.7207 185.089L91.7213 166.682L88.5583 166.682L88.5577 185.088Z" fill="#E6E6FF"/>
<path d="M82.7547 185.088H85.9177V163.328H82.7547V185.088Z" fill="#E6E6FF"/>
<path d="M76.9524 185.088H80.1154V174.686H76.9524V185.088Z" fill="#E6E6FF"/>
<path d="M71.1491 185.088H74.3121V177.625H71.1491V185.088Z" fill="#E6E6FF"/>
<path d="M65.3459 185.089H68.5089V179.888H65.3459V185.089Z" fill="#E6E6FF"/>
<path d="M59.5426 185.088H62.7056V177.06H59.5426V185.088Z" fill="#E6E6FF"/>
<path d="M53.7393 185.088H56.9023V174.686H53.7393V185.088Z" fill="#E6E6FF"/>
<path d="M47.936 185.088H51.099V169.77H47.936V185.088Z" fill="#E6E6FF"/>
<path d="M596.635 107.475C598.565 107.475 598.569 104.475 596.635 104.475C594.705 104.475 594.702 107.475 596.635 107.475Z" fill="#4145E7"/>
<path d="M352.46 134.911C354.39 134.911 354.394 131.911 352.46 131.911C350.529 131.911 350.526 134.911 352.46 134.911Z" fill="#4145E7"/>
<path d="M151.834 177.209C153.764 177.209 153.768 174.209 151.834 174.209C149.904 174.209 149.901 177.209 151.834 177.209Z" fill="#4145E7"/>
<path d="M287.32 409.25C289.25 409.25 289.254 406.25 287.32 406.25C285.39 406.25 285.387 409.25 287.32 409.25Z" fill="#4145E7"/>
<path d="M470.101 416.79C472.031 416.79 472.035 413.79 470.101 413.79C468.17 413.79 468.167 416.79 470.101 416.79Z" fill="#4145E7"/>
<path d="M687.885 301.592C689.815 301.592 689.819 298.592 687.885 298.592C685.954 298.592 685.951 301.592 687.885 301.592Z" fill="#4145E7"/>
</g>
<defs>
<clipPath id="clip0_0_1">
<rect width="750" height="500" fill="white"/>
</clipPath>
</defs>
</svg>
