<?xml version="1.0" encoding="utf-8"?>
<!-- Generator: Adobe Illustrator 27.5.0, SVG Export Plug-In . SVG Version: 6.00 Build 0)  -->
<svg version="1.1" xmlns="http://www.w3.org/2000/svg" xmlns:xlink="http://www.w3.org/1999/xlink" x="0px" y="0px"
	 viewBox="0 0 750 500" style="enable-background:new 0 0 750 500;" xml:space="preserve">
<g id="BACKGROUND">
	<rect style="fill:#FFFFFF;" width="750" height="500"/>
</g>
<g id="OBJECTS">
	<g>
		<path style="fill:#E6E6FF;" d="M684.319,443.863H63.838c-20.399-22.072-31.908-53.497-23.984-82.488
			c7.924-28.991,31.528-53.177,60.317-61.805c25.451-7.627,53.541-3.683,78.41-13.033c22.879-8.602,41.097-28.7,47.416-52.312
			c6.476-24.197,0.907-50.029,4.539-74.813c4.031-27.503,19.939-53.058,42.839-68.816c21.905-15.073,52.439-20.579,75.1-6.668
			c36.371,22.326,38.595,82.814,78.592,97.695c20.211,7.52,42.78-0.144,62.064-9.797c19.284-9.653,38.404-21.612,59.92-23.061
			c20.754-1.398,41.942,8.005,54.83,24.332c12.888,16.327,17.113,39.12,10.933,58.982c-5.562,17.877-19.051,34.773-15.329,53.121
			c4.808,23.697,33.411,31.939,53.81,44.921C689.963,353.458,703.705,404.962,684.319,443.863z"/>
		<g>
			<path style="fill:#4145E7;" d="M145.759,231.766H55.005c-3.355,0-6.075-2.72-6.075-6.075v-16.756c0-3.355,2.72-6.075,6.075-6.075
				h90.755c3.355,0,6.075,2.72,6.075,6.075v16.756C151.834,229.046,149.114,231.766,145.759,231.766z"/>
			<g>
				<path style="fill:#FFFFFF;" d="M67.612,212.784c0,2.501-2.027,4.529-4.528,4.529c-2.501,0-4.528-2.027-4.528-4.529
					c0-2.501,2.027-4.528,4.528-4.528C65.585,208.256,67.612,210.283,67.612,212.784z"/>
				<path style="fill:#FFFFFF;" d="M63.004,218.839c-4.61,0-8.347,3.737-8.347,8.347h16.694
					C71.351,222.577,67.614,218.839,63.004,218.839z"/>
			</g>
			<path style="fill:#1A0E90;" d="M143.938,212.784H77.842c-1.251,0-2.264-1.014-2.264-2.264l0,0c0-1.25,1.014-2.264,2.264-2.264
				h66.096c1.251,0,2.264,1.014,2.264,2.264l0,0C146.203,211.771,145.189,212.784,143.938,212.784z"/>
			<path style="fill:#FFD000;" d="M82.474,217.459l1.133,2.296c0.078,0.158,0.229,0.267,0.403,0.292l2.534,0.368
				c0.439,0.064,0.614,0.603,0.296,0.912l-1.833,1.787c-0.126,0.123-0.184,0.3-0.154,0.473l0.433,2.523
				c0.075,0.437-0.384,0.77-0.776,0.564l-2.266-1.191c-0.156-0.082-0.342-0.082-0.498,0l-2.266,1.191
				c-0.392,0.206-0.851-0.127-0.776-0.564l0.433-2.523c0.03-0.173-0.028-0.35-0.154-0.473l-1.833-1.787
				c-0.317-0.309-0.142-0.848,0.296-0.912l2.534-0.368c0.174-0.025,0.325-0.135,0.403-0.292l1.133-2.296
				C81.711,217.062,82.278,217.062,82.474,217.459z"/>
			<path style="fill:#FFD000;" d="M97.168,217.459l1.133,2.296c0.078,0.158,0.229,0.267,0.403,0.292l2.534,0.368
				c0.439,0.064,0.614,0.603,0.296,0.912l-1.833,1.787c-0.126,0.123-0.184,0.3-0.154,0.473l0.433,2.523
				c0.075,0.437-0.384,0.77-0.776,0.564l-2.266-1.191c-0.156-0.082-0.342-0.082-0.498,0l-2.266,1.191
				c-0.392,0.206-0.851-0.127-0.776-0.564l0.433-2.523c0.03-0.173-0.028-0.35-0.154-0.473l-1.833-1.787
				c-0.317-0.309-0.142-0.848,0.296-0.912l2.534-0.368c0.174-0.025,0.325-0.135,0.403-0.292l1.133-2.296
				C96.405,217.062,96.972,217.062,97.168,217.459z"/>
			<path style="fill:#FFD000;" d="M111.862,217.459l1.133,2.296c0.078,0.158,0.229,0.267,0.403,0.292l2.534,0.368
				c0.439,0.064,0.614,0.603,0.296,0.912l-1.833,1.787c-0.126,0.123-0.184,0.3-0.154,0.473l0.433,2.523
				c0.075,0.437-0.384,0.77-0.776,0.564l-2.266-1.191c-0.156-0.082-0.342-0.082-0.498,0l-2.266,1.191
				c-0.392,0.206-0.851-0.127-0.776-0.564l0.433-2.523c0.03-0.173-0.028-0.35-0.154-0.473l-1.833-1.787
				c-0.317-0.309-0.142-0.848,0.296-0.912l2.534-0.368c0.174-0.025,0.325-0.135,0.403-0.292l1.133-2.296
				C111.099,217.062,111.666,217.062,111.862,217.459z"/>
			<path style="fill:#FFFFFF;" d="M126.556,217.459l1.133,2.296c0.078,0.158,0.229,0.267,0.403,0.292l2.534,0.368
				c0.439,0.064,0.614,0.603,0.296,0.912l-1.833,1.787c-0.126,0.123-0.184,0.3-0.154,0.473l0.433,2.523
				c0.075,0.437-0.384,0.77-0.776,0.564l-2.266-1.191c-0.156-0.082-0.342-0.082-0.498,0l-2.266,1.191
				c-0.392,0.206-0.851-0.127-0.776-0.564l0.433-2.523c0.03-0.173-0.028-0.35-0.154-0.473l-1.833-1.787
				c-0.317-0.309-0.142-0.848,0.296-0.912l2.534-0.368c0.174-0.025,0.325-0.135,0.403-0.292l1.133-2.296
				C125.793,217.062,126.36,217.062,126.556,217.459z"/>
			<path style="fill:#FFFFFF;" d="M141.25,217.459l1.133,2.296c0.078,0.158,0.228,0.267,0.403,0.292l2.534,0.368
				c0.439,0.064,0.614,0.603,0.296,0.912l-1.833,1.787c-0.126,0.123-0.184,0.3-0.154,0.473l0.433,2.523
				c0.075,0.437-0.384,0.77-0.776,0.564l-2.266-1.191c-0.156-0.082-0.342-0.082-0.498,0l-2.266,1.191
				c-0.392,0.206-0.851-0.127-0.776-0.564l0.433-2.523c0.03-0.173-0.028-0.35-0.154-0.473l-1.833-1.787
				c-0.317-0.309-0.142-0.848,0.296-0.912l2.534-0.368c0.174-0.025,0.325-0.135,0.403-0.292l1.133-2.296
				C140.487,217.062,141.054,217.062,141.25,217.459z"/>
		</g>
		<g>
			<path style="fill:#4145E7;" d="M551.239,136.81h-90.755c-3.355,0-6.075-2.72-6.075-6.075v-16.756c0-3.355,2.72-6.075,6.075-6.075
				h90.755c3.355,0,6.075,2.72,6.075,6.075v16.756C557.314,134.09,554.594,136.81,551.239,136.81z"/>
			<g>
				<path style="fill:#FFFFFF;" d="M473.092,117.828c0,2.501-2.027,4.528-4.528,4.528s-4.529-2.027-4.529-4.528
					s2.027-4.529,4.529-4.529S473.092,115.327,473.092,117.828z"/>
				<path style="fill:#FFFFFF;" d="M468.484,123.883c-4.61,0-8.347,3.737-8.347,8.347h16.694
					C476.831,127.62,473.094,123.883,468.484,123.883z"/>
			</g>
			<path style="fill:#1A0E90;" d="M549.418,117.828h-66.096c-1.251,0-2.264-1.014-2.264-2.264l0,0c0-1.251,1.014-2.264,2.264-2.264
				h66.096c1.25,0,2.264,1.014,2.264,2.264l0,0C551.682,116.814,550.669,117.828,549.418,117.828z"/>
			<path style="fill:#FFD000;" d="M487.953,122.503l1.133,2.296c0.078,0.158,0.228,0.267,0.403,0.293l2.534,0.368
				c0.439,0.064,0.614,0.603,0.296,0.912l-1.833,1.787c-0.126,0.123-0.184,0.3-0.154,0.473l0.433,2.523
				c0.075,0.437-0.384,0.77-0.776,0.564l-2.266-1.191c-0.156-0.082-0.342-0.082-0.498,0l-2.266,1.191
				c-0.392,0.206-0.851-0.127-0.776-0.564l0.433-2.523c0.03-0.173-0.028-0.35-0.154-0.473l-1.833-1.787
				c-0.317-0.309-0.142-0.848,0.296-0.912l2.534-0.368c0.174-0.025,0.325-0.135,0.403-0.293l1.133-2.296
				C487.191,122.106,487.757,122.106,487.953,122.503z"/>
			<path style="fill:#FFD000;" d="M502.647,122.503l1.133,2.296c0.078,0.158,0.229,0.267,0.403,0.293l2.534,0.368
				c0.439,0.064,0.614,0.603,0.296,0.912l-1.833,1.787c-0.126,0.123-0.184,0.3-0.154,0.473l0.433,2.523
				c0.075,0.437-0.384,0.77-0.776,0.564l-2.266-1.191c-0.156-0.082-0.342-0.082-0.498,0l-2.266,1.191
				c-0.392,0.206-0.851-0.127-0.776-0.564l0.433-2.523c0.03-0.173-0.028-0.35-0.154-0.473l-1.833-1.787
				c-0.317-0.309-0.142-0.848,0.296-0.912l2.534-0.368c0.174-0.025,0.325-0.135,0.403-0.293l1.133-2.296
				C501.885,122.106,502.451,122.106,502.647,122.503z"/>
			<path style="fill:#FFFFFF;" d="M517.341,122.503l1.133,2.296c0.078,0.158,0.229,0.267,0.403,0.293l2.534,0.368
				c0.439,0.064,0.614,0.603,0.296,0.912l-1.833,1.787c-0.126,0.123-0.183,0.3-0.154,0.473l0.433,2.523
				c0.075,0.437-0.384,0.77-0.776,0.564l-2.266-1.191c-0.156-0.082-0.342-0.082-0.498,0l-2.266,1.191
				c-0.392,0.206-0.851-0.127-0.776-0.564l0.433-2.523c0.03-0.173-0.028-0.35-0.154-0.473l-1.833-1.787
				c-0.317-0.309-0.142-0.848,0.296-0.912l2.534-0.368c0.174-0.025,0.325-0.135,0.403-0.293l1.133-2.296
				C516.579,122.106,517.145,122.106,517.341,122.503z"/>
			<path style="fill:#FFFFFF;" d="M532.035,122.503l1.133,2.296c0.078,0.158,0.229,0.267,0.403,0.293l2.534,0.368
				c0.439,0.064,0.614,0.603,0.296,0.912l-1.833,1.787c-0.126,0.123-0.184,0.3-0.154,0.473l0.433,2.523
				c0.075,0.437-0.384,0.77-0.776,0.564l-2.266-1.191c-0.156-0.082-0.342-0.082-0.498,0l-2.266,1.191
				c-0.392,0.206-0.851-0.127-0.776-0.564l0.433-2.523c0.03-0.173-0.028-0.35-0.154-0.473l-1.833-1.787
				c-0.317-0.309-0.142-0.848,0.296-0.912l2.534-0.368c0.174-0.025,0.325-0.135,0.403-0.293l1.133-2.296
				C531.272,122.106,531.839,122.106,532.035,122.503z"/>
			<path style="fill:#FFFFFF;" d="M546.729,122.503l1.133,2.296c0.078,0.158,0.229,0.267,0.403,0.293l2.534,0.368
				c0.439,0.064,0.614,0.603,0.296,0.912l-1.833,1.787c-0.126,0.123-0.184,0.3-0.154,0.473l0.433,2.523
				c0.075,0.437-0.384,0.77-0.776,0.564l-2.266-1.191c-0.156-0.082-0.342-0.082-0.498,0l-2.266,1.191
				c-0.392,0.206-0.851-0.127-0.776-0.564l0.433-2.523c0.03-0.173-0.028-0.35-0.154-0.473l-1.833-1.787
				c-0.317-0.309-0.142-0.848,0.296-0.912l2.534-0.368c0.174-0.025,0.325-0.135,0.403-0.293l1.133-2.296
				C545.966,122.106,546.533,122.106,546.729,122.503z"/>
		</g>
		<g>
			<path style="fill:#4145E7;" d="M309.389,134.881H185.912c-4.565,0-8.266-3.701-8.266-8.266v-22.798
				c0-4.565,3.701-8.266,8.266-8.266h123.477c4.565,0,8.266,3.701,8.266,8.266v22.798
				C317.655,131.18,313.954,134.881,309.389,134.881z"/>
			<g>
				<path style="fill:#FFFFFF;" d="M203.066,109.055c0,3.403-2.758,6.161-6.161,6.161c-3.403,0-6.161-2.758-6.161-6.161
					s2.759-6.161,6.161-6.161C200.307,102.894,203.066,105.652,203.066,109.055z"/>
				<path style="fill:#FFFFFF;" d="M196.796,117.294c-6.272,0-11.357,5.085-11.357,11.357h22.714
					C208.153,122.378,203.068,117.294,196.796,117.294z"/>
			</g>
			<path style="fill:#1A0E90;" d="M306.912,109.055h-89.928c-1.701,0-3.081-1.379-3.081-3.081l0,0c0-1.701,1.379-3.081,3.081-3.081
				h89.928c1.701,0,3.081,1.379,3.081,3.081l0,0C309.993,107.676,308.614,109.055,306.912,109.055z"/>
			<path style="fill:#FFD000;" d="M223.286,115.416l1.542,3.124c0.106,0.215,0.311,0.364,0.548,0.398l3.447,0.501
				c0.597,0.087,0.835,0.82,0.403,1.241l-2.494,2.431c-0.172,0.167-0.25,0.408-0.209,0.644l0.589,3.433
				c0.102,0.594-0.522,1.048-1.056,0.767l-3.083-1.621c-0.212-0.111-0.465-0.111-0.677,0l-3.083,1.621
				c-0.534,0.281-1.158-0.173-1.056-0.767l0.589-3.433c0.04-0.236-0.038-0.477-0.209-0.644l-2.494-2.431
				c-0.432-0.421-0.194-1.154,0.403-1.241l3.447-0.501c0.237-0.035,0.442-0.183,0.548-0.398l1.542-3.124
				C222.248,114.875,223.019,114.875,223.286,115.416z"/>
			<path style="fill:#FFD000;" d="M243.278,115.416l1.542,3.124c0.106,0.215,0.311,0.364,0.548,0.398l3.447,0.501
				c0.597,0.087,0.835,0.82,0.403,1.241l-2.494,2.431c-0.172,0.167-0.25,0.408-0.209,0.644l0.589,3.433
				c0.102,0.594-0.522,1.048-1.056,0.767l-3.083-1.621c-0.212-0.111-0.465-0.111-0.677,0l-3.083,1.621
				c-0.534,0.281-1.158-0.173-1.056-0.767l0.589-3.433c0.04-0.236-0.038-0.477-0.209-0.644l-2.494-2.431
				c-0.432-0.421-0.194-1.154,0.403-1.241l3.447-0.501c0.237-0.035,0.442-0.183,0.548-0.398l1.542-3.124
				C242.24,114.875,243.011,114.875,243.278,115.416z"/>
			<path style="fill:#FFD000;" d="M263.27,115.416l1.542,3.124c0.106,0.215,0.311,0.364,0.548,0.398l3.447,0.501
				c0.597,0.087,0.835,0.82,0.403,1.241l-2.494,2.431c-0.172,0.167-0.25,0.408-0.209,0.644l0.589,3.433
				c0.102,0.594-0.522,1.048-1.056,0.767l-3.083-1.621c-0.212-0.111-0.465-0.111-0.677,0l-3.083,1.621
				c-0.534,0.281-1.158-0.173-1.056-0.767l0.589-3.433c0.04-0.236-0.038-0.477-0.209-0.644l-2.494-2.431
				c-0.432-0.421-0.194-1.154,0.403-1.241l3.447-0.501c0.237-0.035,0.442-0.183,0.548-0.398l1.542-3.124
				C262.232,114.875,263.003,114.875,263.27,115.416z"/>
			<path style="fill:#FFD000;" d="M283.262,115.416l1.542,3.124c0.106,0.215,0.311,0.364,0.548,0.398l3.447,0.501
				c0.597,0.087,0.835,0.82,0.403,1.241l-2.494,2.431c-0.171,0.167-0.25,0.408-0.209,0.644l0.589,3.433
				c0.102,0.594-0.522,1.048-1.056,0.767l-3.083-1.621c-0.212-0.111-0.465-0.111-0.677,0l-3.083,1.621
				c-0.534,0.281-1.158-0.173-1.056-0.767l0.589-3.433c0.04-0.236-0.038-0.477-0.209-0.644l-2.494-2.431
				c-0.432-0.421-0.194-1.154,0.403-1.241l3.447-0.501c0.237-0.035,0.442-0.183,0.548-0.398l1.542-3.124
				C282.224,114.875,282.995,114.875,283.262,115.416z"/>
			<path style="fill:#FFFFFF;" d="M303.254,115.416l1.542,3.124c0.106,0.215,0.311,0.364,0.548,0.398l3.447,0.501
				c0.597,0.087,0.835,0.82,0.403,1.241l-2.494,2.431c-0.171,0.167-0.25,0.408-0.209,0.644l0.589,3.433
				c0.102,0.594-0.522,1.048-1.056,0.767l-3.083-1.621c-0.212-0.111-0.465-0.111-0.677,0l-3.083,1.621
				c-0.534,0.281-1.158-0.173-1.056-0.767l0.589-3.433c0.04-0.236-0.038-0.477-0.209-0.644l-2.494-2.431
				c-0.432-0.421-0.194-1.154,0.403-1.241l3.447-0.501c0.237-0.035,0.442-0.183,0.548-0.398l1.542-3.124
				C302.216,114.875,302.987,114.875,303.254,115.416z"/>
		</g>
		<g>
			<path style="fill:#4145E7;" d="M709.229,257.3H585.752c-4.565,0-8.266-3.701-8.266-8.266v-22.798
				c0-4.565,3.701-8.266,8.266-8.266h123.477c4.565,0,8.266,3.701,8.266,8.266v22.798C717.494,253.6,713.794,257.3,709.229,257.3z"
				/>
			<g>
				<path style="fill:#FFFFFF;" d="M602.905,231.475c0,3.403-2.759,6.161-6.161,6.161c-3.403,0-6.161-2.758-6.161-6.161
					c0-3.403,2.758-6.161,6.161-6.161C600.146,225.313,602.905,228.072,602.905,231.475z"/>
				<path style="fill:#FFFFFF;" d="M596.635,239.713c-6.272,0-11.357,5.085-11.357,11.357h22.714
					C607.992,244.798,602.908,239.713,596.635,239.713z"/>
			</g>
			<path style="fill:#1A0E90;" d="M706.752,231.475h-89.928c-1.701,0-3.081-1.379-3.081-3.081l0,0c0-1.701,1.379-3.081,3.081-3.081
				h89.928c1.701,0,3.081,1.379,3.081,3.081l0,0C709.832,230.095,708.453,231.475,706.752,231.475z"/>
			<path style="fill:#FFD000;" d="M623.125,237.835l1.542,3.124c0.106,0.215,0.311,0.364,0.548,0.398l3.447,0.501
				c0.597,0.087,0.835,0.82,0.403,1.241l-2.494,2.431c-0.171,0.167-0.25,0.408-0.209,0.644l0.589,3.433
				c0.102,0.594-0.522,1.048-1.056,0.767l-3.083-1.621c-0.212-0.111-0.465-0.111-0.677,0l-3.083,1.621
				c-0.534,0.281-1.158-0.173-1.056-0.767l0.589-3.433c0.04-0.236-0.038-0.477-0.209-0.644l-2.494-2.431
				c-0.432-0.421-0.193-1.154,0.403-1.241l3.447-0.501c0.237-0.034,0.442-0.183,0.548-0.398l1.542-3.124
				C622.087,237.294,622.858,237.294,623.125,237.835z"/>
			<path style="fill:#FFFFFF;" d="M643.117,237.835l1.542,3.124c0.106,0.215,0.311,0.364,0.548,0.398l3.447,0.501
				c0.597,0.087,0.835,0.82,0.403,1.241l-2.494,2.431c-0.171,0.167-0.25,0.408-0.209,0.644l0.589,3.433
				c0.102,0.594-0.522,1.048-1.056,0.767l-3.083-1.621c-0.212-0.111-0.465-0.111-0.677,0l-3.083,1.621
				c-0.534,0.281-1.158-0.173-1.056-0.767l0.589-3.433c0.041-0.236-0.038-0.477-0.209-0.644l-2.494-2.431
				c-0.432-0.421-0.194-1.154,0.403-1.241l3.447-0.501c0.237-0.034,0.442-0.183,0.548-0.398l1.542-3.124
				C642.079,237.294,642.85,237.294,643.117,237.835z"/>
			<path style="fill:#FFFFFF;" d="M663.109,237.835l1.542,3.124c0.106,0.215,0.311,0.364,0.548,0.398l3.447,0.501
				c0.597,0.087,0.835,0.82,0.403,1.241l-2.494,2.431c-0.172,0.167-0.25,0.408-0.209,0.644l0.589,3.433
				c0.102,0.594-0.522,1.048-1.056,0.767l-3.083-1.621c-0.212-0.111-0.465-0.111-0.677,0l-3.083,1.621
				c-0.534,0.281-1.158-0.173-1.056-0.767l0.589-3.433c0.04-0.236-0.038-0.477-0.209-0.644l-2.494-2.431
				c-0.432-0.421-0.194-1.154,0.403-1.241l3.447-0.501c0.237-0.034,0.442-0.183,0.548-0.398l1.542-3.124
				C662.071,237.294,662.842,237.294,663.109,237.835z"/>
			<path style="fill:#FFFFFF;" d="M683.101,237.835l1.542,3.124c0.106,0.215,0.311,0.364,0.548,0.398l3.447,0.501
				c0.597,0.087,0.835,0.82,0.403,1.241l-2.494,2.431c-0.171,0.167-0.25,0.408-0.209,0.644l0.589,3.433
				c0.102,0.594-0.522,1.048-1.056,0.767l-3.083-1.621c-0.212-0.111-0.465-0.111-0.677,0l-3.083,1.621
				c-0.534,0.281-1.158-0.173-1.056-0.767l0.589-3.433c0.04-0.236-0.038-0.477-0.209-0.644l-2.494-2.431
				c-0.432-0.421-0.193-1.154,0.403-1.241l3.447-0.501c0.237-0.034,0.442-0.183,0.548-0.398l1.542-3.124
				C682.063,237.294,682.834,237.294,683.101,237.835z"/>
			<path style="fill:#FFFFFF;" d="M703.093,237.835l1.542,3.124c0.106,0.215,0.311,0.364,0.548,0.398l3.447,0.501
				c0.597,0.087,0.835,0.82,0.403,1.241l-2.494,2.431c-0.171,0.167-0.25,0.408-0.209,0.644l0.589,3.433
				c0.102,0.594-0.522,1.048-1.056,0.767l-3.083-1.621c-0.212-0.111-0.465-0.111-0.677,0l-3.083,1.621
				c-0.534,0.281-1.158-0.173-1.056-0.767l0.589-3.433c0.041-0.236-0.038-0.477-0.209-0.644l-2.494-2.431
				c-0.432-0.421-0.193-1.154,0.403-1.241l3.447-0.501c0.237-0.034,0.442-0.183,0.548-0.398l1.542-3.124
				C702.055,237.294,702.826,237.294,703.093,237.835z"/>
		</g>
		<g>
			<g>
				<path style="fill:#1A0E90;" d="M518.602,168.293H212.176c-8.726,0-15.8,7.074-15.8,15.8v186.509c0,8.726,7.074,15.8,15.8,15.8
					h124.868v32.668h-14.413c-13.266,0-24.021,10.754-24.021,24.021v0h126.83v0c0-13.266-10.754-24.021-24.021-24.021h-14.413
					v-32.668h131.594c8.726,0,15.8-7.074,15.8-15.8V184.093C534.402,175.367,527.328,168.293,518.602,168.293z"/>
				<path style="fill:#4145E7;" d="M527.291,386.402H220.866c-8.726,0-15.8-7.074-15.8-15.8V184.093c0-8.726,7.074-15.8,15.8-15.8
					h306.425c8.726,0,15.8,7.074,15.8,15.8v186.509C543.091,379.328,536.017,386.402,527.291,386.402z"/>
				<path style="fill:#45AAC7;" d="M220.866,377.712c-3.921,0-7.11-3.19-7.11-7.11V184.093c0-3.921,3.19-7.11,7.11-7.11h306.425
					c3.92,0,7.11,3.19,7.11,7.11v186.509c0,3.921-3.19,7.11-7.11,7.11H220.866z"/>
				<rect x="352.46" y="382.559" style="fill:#4145E7;" width="43.237" height="52.846"/>
				<path style="fill:#4145E7;" d="M434.13,443.091H314.026v0c0-13.266,10.755-24.021,24.021-24.021h72.063
					C423.376,419.07,434.13,429.825,434.13,443.091L434.13,443.091z"/>
				
					<path style="fill:#373AC4;stroke:#45AAC7;stroke-width:3;stroke-linecap:round;stroke-linejoin:round;stroke-miterlimit:10;" d="
					M334.967,301.34c-10.006,10.015-16.198,23.836-16.198,39.111h-64.981c0-33.218,13.468-63.29,35.234-85.056L334.967,301.34z"/>
				
					<path style="fill:#EB3D8C;stroke:#45AAC7;stroke-width:3;stroke-linecap:round;stroke-linejoin:round;stroke-miterlimit:10;" d="
					M374.078,220.162v64.981c-15.276,0-29.096,6.192-39.111,16.198l-45.945-45.945C310.788,233.63,340.861,220.162,374.078,220.162z
					"/>
				
					<path style="fill:#FF8C00;stroke:#45AAC7;stroke-width:3;stroke-linecap:round;stroke-linejoin:round;stroke-miterlimit:10;" d="
					M459.135,255.395L413.19,301.34c-10.015-10.006-23.836-16.198-39.111-16.198v-64.981
					C407.297,220.162,437.369,233.63,459.135,255.395z"/>
				
					<path style="fill:#39943A;stroke:#45AAC7;stroke-width:3;stroke-linecap:round;stroke-linejoin:round;stroke-miterlimit:10;" d="
					M494.368,340.452h-64.981c0-15.276-6.192-29.096-16.198-39.111l45.945-45.945C480.9,277.161,494.368,307.234,494.368,340.452z"
					/>
				<g>
					<path style="fill:#FFFFFF;" d="M262.966,207.465c-1.465-0.788-2.617-1.88-3.456-3.278c-0.838-1.397-1.258-2.977-1.258-4.739
						c0-1.762,0.419-3.342,1.258-4.74c0.839-1.397,1.991-2.49,3.456-3.278c1.465-0.788,3.113-1.182,4.943-1.182
						c1.542,0,2.936,0.271,4.181,0.813c1.245,0.542,2.291,1.321,3.138,2.338l-2.642,2.439c-1.203-1.389-2.694-2.083-4.473-2.083
						c-1.102,0-2.084,0.241-2.948,0.724c-0.864,0.483-1.537,1.156-2.02,2.02c-0.483,0.864-0.725,1.847-0.725,2.948
						c0,1.102,0.242,2.084,0.725,2.948c0.483,0.864,1.156,1.538,2.02,2.02c0.864,0.483,1.847,0.724,2.948,0.724
						c1.779,0,3.27-0.703,4.473-2.109l2.642,2.44c-0.847,1.034-1.897,1.821-3.151,2.363c-1.254,0.542-2.652,0.814-4.193,0.814
						C266.07,208.647,264.431,208.253,262.966,207.465z"/>
					<path style="fill:#FFFFFF;" d="M291.873,208.342l-3.431-4.956h-0.203h-3.583v4.956h-4.117v-17.789h7.7
						c1.576,0,2.943,0.263,4.104,0.788c1.16,0.525,2.054,1.271,2.681,2.236c0.626,0.966,0.94,2.109,0.94,3.431
						c0,1.322-0.318,2.462-0.953,3.419c-0.635,0.957-1.538,1.69-2.706,2.198l3.99,5.718H291.873z M290.831,194.708
						c-0.644-0.534-1.584-0.8-2.821-0.8h-3.354v6.201h3.354c1.237,0,2.177-0.271,2.821-0.813c0.644-0.542,0.966-1.305,0.966-2.288
						C291.797,196.008,291.475,195.241,290.831,194.708z"/>
					<path style="fill:#FFFFFF;" d="M315.532,205.038v3.304h-13.774v-17.789h13.443v3.304h-9.352v3.863h8.259v3.202h-8.259v4.117
						H315.532z"/>
					<path style="fill:#FFFFFF;" d="M321.352,190.553h8.081c1.932,0,3.638,0.368,5.121,1.105c1.482,0.737,2.634,1.775,3.456,3.113
						c0.821,1.339,1.232,2.898,1.232,4.676c0,1.779-0.411,3.338-1.232,4.676c-0.822,1.339-1.974,2.376-3.456,3.113
						c-1.483,0.737-3.189,1.105-5.121,1.105h-8.081V190.553z M329.229,204.962c1.779,0,3.198-0.496,4.257-1.487
						c1.059-0.991,1.588-2.333,1.588-4.028c0-1.694-0.53-3.037-1.588-4.028c-1.059-0.991-2.478-1.487-4.257-1.487h-3.761v11.029
						H329.229z"/>
					<path style="fill:#FFFFFF;" d="M344.883,190.553H349v17.789h-4.117V190.553z"/>
					<path style="fill:#FFFFFF;" d="M359.444,193.907h-5.692v-3.354h15.502v3.354h-5.692v14.435h-4.117V193.907z"/>
					<path style="fill:#FFFFFF;" d="M385.506,208.075c-1.314-0.381-2.368-0.877-3.164-1.487l1.397-3.101
						c0.763,0.559,1.668,1.008,2.719,1.347c1.051,0.339,2.101,0.508,3.151,0.508c1.169,0,2.033-0.174,2.593-0.521
						c0.559-0.347,0.838-0.809,0.838-1.385c0-0.423-0.165-0.775-0.495-1.055c-0.33-0.279-0.754-0.504-1.271-0.673
						c-0.518-0.169-1.216-0.356-2.097-0.559c-1.355-0.322-2.465-0.644-3.329-0.966c-0.864-0.321-1.605-0.838-2.224-1.55
						c-0.619-0.711-0.928-1.66-0.928-2.846c0-1.033,0.279-1.969,0.839-2.808c0.559-0.838,1.401-1.503,2.528-1.995
						c1.127-0.491,2.503-0.737,4.13-0.737c1.135,0,2.244,0.136,3.329,0.407c1.084,0.271,2.033,0.661,2.846,1.169l-1.27,3.126
						c-1.644-0.932-3.287-1.398-4.93-1.398c-1.152,0-2.004,0.186-2.555,0.559c-0.551,0.373-0.825,0.864-0.825,1.474
						c0,0.61,0.317,1.063,0.953,1.359c0.635,0.297,1.604,0.589,2.909,0.877c1.355,0.322,2.465,0.644,3.329,0.966
						c0.864,0.322,1.605,0.83,2.224,1.524c0.618,0.695,0.928,1.635,0.928,2.821c0,1.016-0.284,1.944-0.851,2.783
						c-0.567,0.838-1.419,1.504-2.554,1.995c-1.136,0.491-2.516,0.737-4.143,0.737C388.178,208.647,386.818,208.456,385.506,208.075
						z"/>
					<path style="fill:#FFFFFF;" d="M406.089,207.465c-1.466-0.788-2.617-1.88-3.456-3.278c-0.839-1.397-1.258-2.977-1.258-4.739
						c0-1.762,0.419-3.342,1.258-4.74c0.839-1.397,1.99-2.49,3.456-3.278c1.466-0.788,3.113-1.182,4.943-1.182
						c1.541,0,2.935,0.271,4.18,0.813c1.246,0.542,2.292,1.321,3.139,2.338l-2.643,2.439c-1.203-1.389-2.694-2.083-4.473-2.083
						c-1.102,0-2.084,0.241-2.948,0.724c-0.864,0.483-1.537,1.156-2.02,2.02c-0.482,0.864-0.724,1.847-0.724,2.948
						c0,1.102,0.241,2.084,0.724,2.948c0.483,0.864,1.156,1.538,2.02,2.02c0.864,0.483,1.847,0.724,2.948,0.724
						c1.778,0,3.27-0.703,4.473-2.109l2.643,2.44c-0.847,1.034-1.897,1.821-3.151,2.363c-1.254,0.542-2.651,0.814-4.192,0.814
						C409.193,208.647,407.555,208.253,406.089,207.465z"/>
					<path style="fill:#FFFFFF;" d="M426.902,207.452c-1.482-0.796-2.642-1.893-3.481-3.291c-0.839-1.397-1.258-2.969-1.258-4.714
						c0-1.745,0.419-3.316,1.258-4.714c0.839-1.397,1.999-2.494,3.481-3.291c1.483-0.796,3.147-1.194,4.994-1.194
						c1.846,0,3.507,0.398,4.981,1.194c1.475,0.797,2.635,1.894,3.481,3.291c0.848,1.398,1.271,2.97,1.271,4.714
						c0,1.745-0.424,3.316-1.271,4.714c-0.847,1.398-2.007,2.495-3.481,3.291c-1.474,0.797-3.135,1.195-4.981,1.195
						C430.05,208.647,428.385,208.249,426.902,207.452z M434.742,204.415c0.848-0.483,1.513-1.156,1.995-2.02
						c0.483-0.864,0.725-1.846,0.725-2.948c0-1.101-0.241-2.084-0.725-2.948c-0.482-0.864-1.147-1.538-1.995-2.02
						c-0.847-0.483-1.796-0.724-2.846-0.724c-1.051,0-2,0.241-2.847,0.724c-0.848,0.483-1.512,1.156-1.995,2.02
						c-0.482,0.864-0.724,1.847-0.724,2.948c0,1.102,0.241,2.084,0.724,2.948c0.483,0.864,1.147,1.538,1.995,2.02
						c0.847,0.483,1.796,0.724,2.847,0.724C432.946,205.14,433.895,204.898,434.742,204.415z"/>
					<path style="fill:#FFFFFF;" d="M458.604,208.342l-3.431-4.956h-0.203h-3.583v4.956h-4.117v-17.789h7.7
						c1.575,0,2.943,0.263,4.104,0.788c1.16,0.525,2.054,1.271,2.681,2.236c0.627,0.966,0.94,2.109,0.94,3.431
						c0,1.322-0.317,2.462-0.953,3.419c-0.636,0.957-1.537,1.69-2.706,2.198l3.989,5.718H458.604z M457.563,194.708
						c-0.644-0.534-1.584-0.8-2.82-0.8h-3.354v6.201h3.354c1.236,0,2.177-0.271,2.82-0.813c0.644-0.542,0.966-1.305,0.966-2.288
						C458.528,196.008,458.206,195.241,457.563,194.708z"/>
					<path style="fill:#FFFFFF;" d="M482.263,205.038v3.304h-13.773v-17.789h13.443v3.304h-9.352v3.863h8.259v3.202h-8.259v4.117
						H482.263z"/>
				</g>
				<g>
					<path style="fill:#FFFFFF;" d="M445.805,351.108h2.275v4.366c-0.585,0.44-1.261,0.779-2.029,1.015
						c-0.77,0.235-1.543,0.354-2.322,0.354c-1.117,0-2.121-0.238-3.013-0.715c-0.892-0.477-1.591-1.138-2.099-1.983
						c-0.507-0.846-0.761-1.801-0.761-2.867c0-1.065,0.254-2.021,0.761-2.867c0.508-0.846,1.212-1.506,2.114-1.982
						c0.901-0.477,1.916-0.715,3.044-0.715c0.942,0,1.799,0.158,2.567,0.477c0.768,0.317,1.414,0.778,1.936,1.383l-1.599,1.477
						c-0.769-0.81-1.696-1.215-2.782-1.215c-0.688,0-1.297,0.143-1.83,0.431c-0.532,0.287-0.948,0.691-1.245,1.214
						c-0.297,0.524-0.445,1.123-0.445,1.799c0,0.667,0.148,1.261,0.445,1.783c0.297,0.524,0.71,0.931,1.237,1.223
						c0.528,0.292,1.131,0.438,1.807,0.438c0.718,0,1.363-0.153,1.938-0.461V351.108z"/>
					<path style="fill:#FFFFFF;" d="M452.576,356.12c-0.898-0.481-1.599-1.145-2.107-1.991c-0.507-0.845-0.761-1.796-0.761-2.852
						c0-1.056,0.254-2.006,0.761-2.852c0.508-0.846,1.209-1.509,2.107-1.991c0.896-0.482,1.903-0.722,3.02-0.722
						c1.117,0,2.122,0.24,3.014,0.722c0.892,0.482,1.594,1.146,2.105,1.991c0.513,0.846,0.77,1.796,0.77,2.852
						c0,1.056-0.257,2.007-0.77,2.852c-0.512,0.846-1.214,1.51-2.105,1.991c-0.892,0.482-1.896,0.723-3.014,0.723
						C454.479,356.843,453.473,356.602,452.576,356.12z M457.318,354.283c0.513-0.292,0.915-0.699,1.207-1.223
						c0.292-0.522,0.439-1.116,0.439-1.783c0-0.666-0.147-1.261-0.439-1.783c-0.292-0.522-0.694-0.93-1.207-1.222
						c-0.513-0.293-1.086-0.438-1.722-0.438c-0.636,0-1.209,0.145-1.722,0.438c-0.513,0.292-0.915,0.699-1.207,1.222
						c-0.292,0.522-0.438,1.117-0.438,1.783c0,0.667,0.146,1.261,0.438,1.783c0.292,0.524,0.694,0.931,1.207,1.223
						c0.513,0.292,1.086,0.438,1.722,0.438C456.232,354.721,456.806,354.575,457.318,354.283z"/>
					<path style="fill:#FFFFFF;" d="M465.551,356.12c-0.897-0.481-1.599-1.145-2.107-1.991c-0.507-0.845-0.761-1.796-0.761-2.852
						c0-1.056,0.254-2.006,0.761-2.852c0.508-0.846,1.209-1.509,2.107-1.991c0.897-0.482,1.903-0.722,3.021-0.722
						s2.122,0.24,3.014,0.722c0.892,0.482,1.594,1.146,2.105,1.991c0.513,0.846,0.77,1.796,0.77,2.852
						c0,1.056-0.257,2.007-0.77,2.852c-0.512,0.846-1.214,1.51-2.105,1.991c-0.892,0.482-1.897,0.723-3.014,0.723
						S466.447,356.602,465.551,356.12z M470.293,354.283c0.513-0.292,0.915-0.699,1.207-1.223c0.292-0.522,0.438-1.116,0.438-1.783
						c0-0.666-0.146-1.261-0.438-1.783c-0.292-0.522-0.694-0.93-1.207-1.222c-0.513-0.293-1.086-0.438-1.722-0.438
						c-0.636,0-1.209,0.145-1.722,0.438c-0.513,0.292-0.915,0.699-1.207,1.222c-0.292,0.522-0.438,1.117-0.438,1.783
						c0,0.667,0.146,1.261,0.438,1.783c0.292,0.524,0.694,0.931,1.207,1.223s1.086,0.438,1.722,0.438
						C469.207,354.721,469.78,354.575,470.293,354.283z"/>
					<path style="fill:#FFFFFF;" d="M476.335,345.897h4.889c1.168,0,2.2,0.224,3.098,0.669c0.896,0.446,1.594,1.074,2.091,1.884
						c0.497,0.81,0.745,1.752,0.745,2.828c0,1.076-0.248,2.02-0.745,2.829c-0.497,0.81-1.194,1.438-2.091,1.883
						c-0.897,0.446-1.93,0.669-3.098,0.669h-4.889V345.897z M481.101,354.613c1.076,0,1.935-0.3,2.575-0.899
						c0.64-0.6,0.96-1.411,0.96-2.437c0-1.024-0.32-1.837-0.96-2.437c-0.641-0.6-1.499-0.899-2.575-0.899h-2.275v6.672H481.101z"/>
				</g>
				<g>
					<path style="fill:#FFFFFF;" d="M371.084,315.296l79.887-13.415c2.094-0.352,4.077,1.061,4.428,3.155
						c0.308,1.835-0.741,3.585-2.414,4.226l-75.626,29.029c-6.176,2.371-13.104-0.714-15.475-6.89
						c-2.371-6.176,0.714-13.104,6.89-15.475C369.516,315.642,370.331,315.427,371.084,315.296z"/>
					<circle style="fill:#373AC4;" cx="371.938" cy="327.117" r="6.409"/>
				</g>
				<g style="opacity:0.3;">
					<defs>
						<path id="SVGID_1_" style="opacity:0.3;" d="M220.866,377.712c-3.921,0-7.11-3.19-7.11-7.11V184.093
							c0-3.921,3.19-7.11,7.11-7.11h306.425c3.92,0,7.11,3.19,7.11,7.11v186.509c0,3.921-3.19,7.11-7.11,7.11H220.866z"/>
					</defs>
					<clipPath id="SVGID_00000031923046101240322450000010997326888171532713_">
						<use xlink:href="#SVGID_1_"  style="overflow:visible;"/>
					</clipPath>
					
						<rect x="230.483" y="63.153" transform="matrix(0.7071 0.7071 -0.7071 0.7071 246.0991 -113.0398)" style="clip-path:url(#SVGID_00000031923046101240322450000010997326888171532713_);fill:#A9ECF4;" width="58.034" height="354.79"/>
					
						<rect x="426.436" y="161.695" transform="matrix(0.7071 0.7071 -0.7071 0.7071 373.1715 -222.7371)" style="clip-path:url(#SVGID_00000031923046101240322450000010997326888171532713_);fill:#A9ECF4;" width="58.034" height="354.79"/>
					
						<rect x="305.941" y="68.064" transform="matrix(0.7071 0.7071 -0.7071 0.7071 282.1689 -148.0964)" style="clip-path:url(#SVGID_00000031923046101240322450000010997326888171532713_);fill:#A9ECF4;" width="27.824" height="396.992"/>
				</g>
				<g>
					<path style="fill:#FFFFFF;" d="M267.918,346.373c0.702,0.318,1.243,0.77,1.622,1.354c0.379,0.584,0.569,1.275,0.569,2.075
						c0,0.789-0.19,1.479-0.569,2.067c-0.379,0.59-0.92,1.041-1.622,1.354c-0.702,0.313-1.53,0.469-2.483,0.469h-2.168v2.967h-2.491
						v-10.762h4.658C266.388,345.897,267.216,346.056,267.918,346.373z M267.003,351.178c0.39-0.323,0.585-0.781,0.585-1.376
						c0-0.604-0.195-1.068-0.585-1.392c-0.389-0.322-0.958-0.484-1.706-0.484h-2.029v3.736h2.029
						C266.045,351.662,266.614,351.5,267.003,351.178z"/>
					<path style="fill:#FFFFFF;" d="M274.221,356.12c-0.897-0.481-1.599-1.145-2.106-1.991c-0.507-0.845-0.761-1.796-0.761-2.852
						c0-1.056,0.253-2.006,0.761-2.852c0.507-0.846,1.209-1.509,2.106-1.991c0.896-0.482,1.903-0.722,3.02-0.722
						c1.117,0,2.122,0.24,3.013,0.722c0.892,0.482,1.594,1.146,2.106,1.991c0.512,0.846,0.769,1.796,0.769,2.852
						c0,1.056-0.256,2.007-0.769,2.852c-0.513,0.846-1.214,1.51-2.106,1.991c-0.892,0.482-1.896,0.723-3.013,0.723
						C276.124,356.843,275.117,356.602,274.221,356.12z M278.963,354.283c0.512-0.292,0.915-0.699,1.207-1.223
						c0.292-0.522,0.439-1.116,0.439-1.783c0-0.666-0.147-1.261-0.439-1.783c-0.292-0.522-0.694-0.93-1.207-1.222
						c-0.513-0.293-1.086-0.438-1.722-0.438c-0.635,0-1.209,0.145-1.722,0.438c-0.513,0.292-0.914,0.699-1.207,1.222
						c-0.292,0.522-0.439,1.117-0.439,1.783c0,0.667,0.146,1.261,0.439,1.783c0.292,0.524,0.694,0.931,1.207,1.223
						s1.086,0.438,1.722,0.438C277.877,354.721,278.451,354.575,278.963,354.283z"/>
					<path style="fill:#FFFFFF;" d="M287.196,356.12c-0.897-0.481-1.599-1.145-2.106-1.991c-0.507-0.845-0.761-1.796-0.761-2.852
						c0-1.056,0.253-2.006,0.761-2.852c0.507-0.846,1.209-1.509,2.106-1.991c0.896-0.482,1.903-0.722,3.02-0.722
						c1.117,0,2.122,0.24,3.013,0.722c0.892,0.482,1.594,1.146,2.106,1.991c0.512,0.846,0.769,1.796,0.769,2.852
						c0,1.056-0.256,2.007-0.769,2.852c-0.513,0.846-1.214,1.51-2.106,1.991c-0.892,0.482-1.896,0.723-3.013,0.723
						C289.099,356.843,288.092,356.602,287.196,356.12z M291.939,354.283c0.512-0.292,0.914-0.699,1.206-1.223
						c0.292-0.522,0.439-1.116,0.439-1.783c0-0.666-0.146-1.261-0.439-1.783c-0.292-0.522-0.694-0.93-1.206-1.222
						c-0.513-0.293-1.086-0.438-1.722-0.438c-0.635,0-1.209,0.145-1.722,0.438c-0.513,0.292-0.915,0.699-1.207,1.222
						c-0.292,0.522-0.439,1.117-0.439,1.783c0,0.667,0.146,1.261,0.439,1.783c0.292,0.524,0.694,0.931,1.207,1.223
						s1.086,0.438,1.722,0.438C290.852,354.721,291.426,354.575,291.939,354.283z"/>
					<path style="fill:#FFFFFF;" d="M304.836,356.658l-2.075-2.998h-0.123h-2.167v2.998h-2.491v-10.762h4.658
						c0.953,0,1.781,0.159,2.483,0.476c0.702,0.318,1.243,0.77,1.622,1.354c0.379,0.584,0.569,1.275,0.569,2.075
						c0,0.8-0.192,1.488-0.576,2.067c-0.384,0.579-0.93,1.022-1.637,1.33l2.414,3.459H304.836z M304.206,348.41
						c-0.389-0.322-0.958-0.484-1.706-0.484h-2.029v3.752h2.029c0.748,0,1.317-0.164,1.706-0.492
						c0.39-0.328,0.584-0.789,0.584-1.384C304.79,349.197,304.596,348.733,304.206,348.41z"/>
				</g>
			</g>
			<g>
				<path style="fill:none;stroke:#4145E7;stroke-width:5;stroke-linecap:round;stroke-linejoin:round;stroke-miterlimit:10;" d="
					M231.178,274.536c-1.468,2.293-3.658,3.748-6.104,3.748c-4.421,0-8.005-4.753-8.005-10.616c0-3.055,0.973-5.809,2.531-7.745"/>
				<path style="fill:none;stroke:#4145E7;stroke-width:5;stroke-linecap:round;stroke-linejoin:round;stroke-miterlimit:10;" d="
					M196.623,274.536c-1.468,2.293-3.658,3.748-6.104,3.748c-4.421,0-8.005-4.753-8.005-10.616c0-3.055,0.973-5.809,2.531-7.745"/>
				<path style="fill:none;stroke:#4145E7;stroke-width:5;stroke-linecap:round;stroke-linejoin:round;stroke-miterlimit:10;" d="
					M162.067,274.536c-1.468,2.293-3.658,3.748-6.104,3.748c-4.421,0-8.005-4.753-8.005-10.616c0-3.055,0.973-5.809,2.531-7.745"/>
				<path style="fill:none;stroke:#4145E7;stroke-width:5;stroke-linecap:round;stroke-linejoin:round;stroke-miterlimit:10;" d="
					M127.512,274.536c-1.468,2.293-3.658,3.748-6.104,3.748c-4.421,0-8.005-4.753-8.005-10.616c0-3.055,0.973-5.809,2.531-7.745"/>
				<polygon style="fill:#FFAA00;" points="233.719,271.949 105.069,271.906 91.124,443.863 219.798,443.863 				"/>
				<polygon style="fill:#FEE7A3;" points="105.069,271.906 110.853,267.532 233.39,267.532 247.651,443.863 118.977,443.863 				
					"/>
				<polygon style="fill:#FFE363;" points="110.853,267.532 239.527,267.532 253.789,443.863 125.114,443.863 				"/>
				<path style="fill:none;stroke:#4145E7;stroke-width:5;stroke-linecap:round;stroke-linejoin:round;stroke-miterlimit:10;" d="
					M115.934,259.923c1.432-1.78,3.357-2.87,5.474-2.87c4.421,0,8.005,4.753,8.005,10.616c0,2.619-0.715,5.017-1.901,6.868"/>
				<path style="fill:none;stroke:#4145E7;stroke-width:5;stroke-linecap:round;stroke-linejoin:round;stroke-miterlimit:10;" d="
					M150.489,259.923c1.432-1.78,3.357-2.87,5.474-2.87c4.421,0,8.005,4.753,8.005,10.616c0,2.619-0.715,5.017-1.901,6.868"/>
				<path style="fill:none;stroke:#4145E7;stroke-width:5;stroke-linecap:round;stroke-linejoin:round;stroke-miterlimit:10;" d="
					M185.044,259.923c1.432-1.78,3.357-2.87,5.474-2.87c4.421,0,8.005,4.753,8.005,10.616c0,2.619-0.715,5.017-1.901,6.868"/>
				<path style="fill:none;stroke:#4145E7;stroke-width:5;stroke-linecap:round;stroke-linejoin:round;stroke-miterlimit:10;" d="
					M219.599,259.923c1.432-1.78,3.357-2.87,5.474-2.87c4.421,0,8.005,4.753,8.005,10.616c0,2.619-0.715,5.017-1.901,6.868"/>
				<g>
					<path style="fill:#FEF2CE;" d="M134.422,306.33h-9.654c-0.887,0-1.619-0.694-1.667-1.579l-0.495-9.136
						c-0.052-0.956,0.71-1.76,1.667-1.76h9.654c0.887,0,1.619,0.694,1.667,1.579l0.495,9.136
						C136.141,305.526,135.38,306.33,134.422,306.33z"/>
					<path style="fill:#FEF2CE;" d="M227.658,302.885H148.06c-1.27,0-2.299-1.029-2.299-2.298l0,0c0-1.269,1.029-2.299,2.299-2.299
						h79.598c1.269,0,2.298,1.029,2.298,2.299l0,0C229.957,301.856,228.928,302.885,227.658,302.885z"/>
				</g>
				<g>
					<path style="fill:#FEF2CE;" d="M136.8,336.924h-9.654c-0.887,0-1.619-0.694-1.667-1.579l-0.495-9.136
						c-0.052-0.956,0.71-1.76,1.667-1.76h9.654c0.887,0,1.619,0.694,1.667,1.579l0.495,9.136
						C138.519,336.12,137.758,336.924,136.8,336.924z"/>
					<path style="fill:#FEF2CE;" d="M230.036,333.479h-79.598c-1.269,0-2.299-1.029-2.299-2.299l0,0
						c0-1.269,1.029-2.298,2.299-2.298h79.598c1.269,0,2.299,1.029,2.299,2.298l0,0C232.335,332.45,231.306,333.479,230.036,333.479
						z"/>
				</g>
				<g>
					<path style="fill:#FEF2CE;" d="M139.178,367.518h-9.654c-0.887,0-1.619-0.694-1.667-1.579l-0.495-9.136
						c-0.052-0.956,0.71-1.76,1.667-1.76h9.654c0.887,0,1.619,0.694,1.667,1.579l0.495,9.136
						C140.897,366.714,140.135,367.518,139.178,367.518z"/>
					<path style="fill:#FEF2CE;" d="M232.414,364.074h-79.598c-1.269,0-2.298-1.029-2.298-2.299l0,0
						c0-1.269,1.029-2.298,2.298-2.298h79.598c1.269,0,2.298,1.029,2.298,2.298l0,0
						C234.712,363.044,233.683,364.074,232.414,364.074z"/>
				</g>
				<g>
					<path style="fill:#FEF2CE;" d="M141.556,398.112h-9.654c-0.887,0-1.619-0.694-1.667-1.579l-0.495-9.136
						c-0.052-0.956,0.71-1.76,1.667-1.76h9.654c0.887,0,1.619,0.694,1.667,1.579l0.495,9.136
						C143.275,397.309,142.513,398.112,141.556,398.112z"/>
					<path style="fill:#FEF2CE;" d="M234.792,394.668h-79.598c-1.269,0-2.298-1.029-2.298-2.299l0,0
						c0-1.269,1.029-2.298,2.298-2.298h79.598c1.27,0,2.299,1.029,2.299,2.298l0,0C237.09,393.639,236.061,394.668,234.792,394.668z
						"/>
				</g>
				<g>
					<path style="fill:#FEF2CE;" d="M143.933,428.707h-9.654c-0.887,0-1.619-0.694-1.667-1.579l-0.495-9.136
						c-0.052-0.956,0.71-1.76,1.667-1.76h9.654c0.887,0,1.619,0.694,1.667,1.579l0.495,9.136
						C145.652,427.903,144.891,428.707,143.933,428.707z"/>
					<path style="fill:#FEF2CE;" d="M237.169,425.262h-79.598c-1.269,0-2.298-1.029-2.298-2.298l0,0c0-1.27,1.029-2.299,2.298-2.299
						h79.598c1.27,0,2.299,1.029,2.299,2.299l0,0C239.468,424.233,238.439,425.262,237.169,425.262z"/>
				</g>
				
					<polyline style="fill:none;stroke:#39943A;stroke-width:3;stroke-linecap:round;stroke-linejoin:round;stroke-miterlimit:10;" points="
					125.723,296.862 129.685,302.656 139.368,286.153 				"/>
				
					<polyline style="fill:none;stroke:#39943A;stroke-width:3;stroke-linecap:round;stroke-linejoin:round;stroke-miterlimit:10;" points="
					128.438,327.685 132.399,333.479 142.082,316.976 				"/>
				
					<polyline style="fill:none;stroke:#39943A;stroke-width:3;stroke-linecap:round;stroke-linejoin:round;stroke-miterlimit:10;" points="
					130.891,358.155 134.853,363.949 144.536,347.446 				"/>
				
					<polyline style="fill:none;stroke:#39943A;stroke-width:3;stroke-linecap:round;stroke-linejoin:round;stroke-miterlimit:10;" points="
					133.084,388.874 137.045,394.668 146.729,378.165 				"/>
				
					<polyline style="fill:none;stroke:#39943A;stroke-width:3;stroke-linecap:round;stroke-linejoin:round;stroke-miterlimit:10;" points="
					135.588,420.585 139.549,426.379 149.232,409.876 				"/>
			</g>
			<g>
				<g>
					<path style="fill:#FFAA00;" d="M617.324,280.357l-48.727,0.054l0.233,101.888l81.16-0.186l-0.174-76.084
						c-0.033-14.219-11.586-25.72-25.805-25.687L617.324,280.357z"/>
					<path style="fill:#FFE363;" d="M623.323,280.307v0.058c-11.357,0.74-20.341,10.185-20.341,21.734v18.333h-88.877v-18.333
						c0-12.039,9.752-21.792,21.792-21.792H623.323z"/>
				</g>
				<g>
					<path style="fill:#FF4298;" d="M605.153,443.091h-79.804c-3.814,0-6.971-2.965-7.211-6.771l-7.144-113.391
						c-0.262-4.161,3.042-7.679,7.211-7.679h94.092c4.169,0,7.473,3.519,7.211,7.679l-7.144,113.391
						C612.124,440.126,608.967,443.091,605.153,443.091z"/>
					<path style="fill:#FF7CB7;" d="M597.098,443.091h-79.804c-3.814,0-6.971-2.965-7.211-6.771l-7.144-113.391
						c-0.262-4.161,3.042-7.679,7.211-7.679h94.092c4.169,0,7.473,3.519,7.211,7.679l-7.144,113.391
						C604.069,440.126,600.912,443.091,597.098,443.091z"/>
					<path style="fill:#EB3D8C;" d="M595.679,336.43h-76.965c-3.872,0-7.01-3.139-7.01-7.01v0c0-3.872,3.139-7.01,7.01-7.01h76.965
						c3.872,0,7.01,3.139,7.01,7.01v0C602.689,333.292,599.551,336.43,595.679,336.43z"/>
					<path style="fill:#FF54A2;" d="M526.988,353.31h-8.525c-2.406,0-4.357-1.951-4.357-4.357v-3.6c0-2.406,1.951-4.357,4.357-4.357
						h8.525c2.406,0,4.357,1.951,4.357,4.357v3.6C531.345,351.359,529.394,353.31,526.988,353.31z"/>
					<path style="fill:#EB3D8C;" d="M549.969,353.31h-8.525c-2.406,0-4.357-1.951-4.357-4.357v-3.6c0-2.406,1.951-4.357,4.357-4.357
						h8.525c2.406,0,4.357,1.951,4.357,4.357v3.6C554.326,351.359,552.375,353.31,549.969,353.31z"/>
					<path style="fill:#EB3D8C;" d="M572.949,353.31h-8.525c-2.406,0-4.357-1.951-4.357-4.357v-3.6c0-2.406,1.951-4.357,4.357-4.357
						h8.525c2.407,0,4.357,1.951,4.357,4.357v3.6C577.307,351.359,575.356,353.31,572.949,353.31z"/>
					<path style="fill:#EB3D8C;" d="M595.93,353.31h-8.525c-2.407,0-4.357-1.951-4.357-4.357v-3.6c0-2.406,1.951-4.357,4.357-4.357
						h8.525c2.406,0,4.357,1.951,4.357,4.357v3.6C600.288,351.359,598.337,353.31,595.93,353.31z"/>
					<path style="fill:#EB3D8C;" d="M526.988,373.413h-8.525c-2.406,0-4.357-1.951-4.357-4.357v-3.6
						c0-2.407,1.951-4.357,4.357-4.357h8.525c2.406,0,4.357,1.951,4.357,4.357v3.6C531.345,371.462,529.394,373.413,526.988,373.413
						z"/>
					<path style="fill:#EB3D8C;" d="M549.969,373.413h-8.525c-2.406,0-4.357-1.951-4.357-4.357v-3.6
						c0-2.407,1.951-4.357,4.357-4.357h8.525c2.406,0,4.357,1.951,4.357,4.357v3.6C554.326,371.462,552.375,373.413,549.969,373.413
						z"/>
					<path style="fill:#EB3D8C;" d="M572.949,373.413h-8.525c-2.406,0-4.357-1.951-4.357-4.357v-3.6
						c0-2.407,1.951-4.357,4.357-4.357h8.525c2.407,0,4.357,1.951,4.357,4.357v3.6C577.307,371.462,575.356,373.413,572.949,373.413
						z"/>
					<path style="fill:#EB3D8C;" d="M595.93,373.413h-8.525c-2.407,0-4.357-1.951-4.357-4.357v-3.6c0-2.407,1.951-4.357,4.357-4.357
						h8.525c2.406,0,4.357,1.951,4.357,4.357v3.6C600.288,371.462,598.337,373.413,595.93,373.413z"/>
					<path style="fill:#EB3D8C;" d="M526.988,393.516h-8.525c-2.406,0-4.357-1.951-4.357-4.357v-3.6
						c0-2.406,1.951-4.357,4.357-4.357h8.525c2.406,0,4.357,1.951,4.357,4.357v3.6C531.345,391.565,529.394,393.516,526.988,393.516
						z"/>
					<path style="fill:#EB3D8C;" d="M549.969,393.516h-8.525c-2.406,0-4.357-1.951-4.357-4.357v-3.6
						c0-2.406,1.951-4.357,4.357-4.357h8.525c2.406,0,4.357,1.951,4.357,4.357v3.6C554.326,391.565,552.375,393.516,549.969,393.516
						z"/>
					<path style="fill:#EB3D8C;" d="M572.949,393.516h-8.525c-2.406,0-4.357-1.951-4.357-4.357v-3.6
						c0-2.406,1.951-4.357,4.357-4.357h8.525c2.407,0,4.357,1.951,4.357,4.357v3.6C577.307,391.565,575.356,393.516,572.949,393.516
						z"/>
					<path style="fill:#EB3D8C;" d="M595.93,393.516h-8.525c-2.407,0-4.357-1.951-4.357-4.357v-3.6c0-2.406,1.951-4.357,4.357-4.357
						h8.525c2.406,0,4.357,1.951,4.357,4.357v3.6C600.288,391.565,598.337,393.516,595.93,393.516z"/>
					<path style="fill:#EB3D8C;" d="M526.988,413.619h-8.525c-2.406,0-4.357-1.951-4.357-4.357v-3.6
						c0-2.407,1.951-4.357,4.357-4.357h8.525c2.406,0,4.357,1.951,4.357,4.357v3.6C531.345,411.668,529.394,413.619,526.988,413.619
						z"/>
					<path style="fill:#EB3D8C;" d="M549.969,413.619h-8.525c-2.406,0-4.357-1.951-4.357-4.357v-3.6
						c0-2.407,1.951-4.357,4.357-4.357h8.525c2.406,0,4.357,1.951,4.357,4.357v3.6C554.326,411.668,552.375,413.619,549.969,413.619
						z"/>
					<path style="fill:#EB3D8C;" d="M572.949,413.619h-8.525c-2.406,0-4.357-1.951-4.357-4.357v-3.6
						c0-2.407,1.951-4.357,4.357-4.357h8.525c2.407,0,4.357,1.951,4.357,4.357v3.6C577.307,411.668,575.356,413.619,572.949,413.619
						z"/>
					<path style="fill:#EB3D8C;" d="M572.949,433.722h-8.525c-2.406,0-4.357-1.951-4.357-4.357v-3.6
						c0-2.407,1.951-4.357,4.357-4.357h8.525c2.407,0,4.357,1.951,4.357,4.357v3.6C577.307,431.771,575.356,433.722,572.949,433.722
						z"/>
					<path style="fill:#FF54A2;" d="M593.568,433.722h-3.8c-3.711,0-6.72-3.009-6.72-6.72v-18.978c0-3.711,3.008-6.72,6.72-6.72h3.8
						c3.711,0,6.72,3.009,6.72,6.72v18.978C600.288,430.713,597.279,433.722,593.568,433.722z"/>
					<path style="fill:#FF54A2;" d="M550.445,433.722h-32.458c-2.144,0-3.881-1.738-3.881-3.881v-4.552
						c0-2.144,1.738-3.881,3.881-3.881h32.458c2.144,0,3.881,1.738,3.881,3.881v4.552
						C554.326,431.984,552.588,433.722,550.445,433.722z"/>
				</g>
			</g>
		</g>
		<g>
			<path style="fill:#3AB53D;" d="M627.488,138.983l3.126-2.068c0.564,1.126,1.162,2.008,1.794,2.646
				c0.633,0.638,1.341,1.072,2.125,1.303l1.362-6.902c-2.314-0.991-3.935-2.141-4.861-3.447c-0.927-1.307-1.215-2.843-0.867-4.608
				c0.365-1.849,1.282-3.209,2.753-4.081c1.471-0.872,3.315-1.149,5.533-0.832l0.432-2.19l2.002,0.395l-0.432,2.19
				c1.309,0.389,2.453,0.969,3.43,1.741c0.977,0.771,1.836,1.77,2.576,2.997l-3.081,2.175c-0.442-0.971-0.953-1.74-1.534-2.308
				c-0.581-0.567-1.27-0.963-2.066-1.185l-1.237,6.271c2.527,1.186,4.248,2.448,5.163,3.785c0.915,1.337,1.185,2.957,0.81,4.858
				c-0.385,1.954-1.359,3.391-2.921,4.31c-1.562,0.92-3.483,1.182-5.762,0.787l-0.631,3.199l-2.002-0.395l0.631-3.199
				c-1.484-0.445-2.748-1.118-3.793-2.017C628.992,141.509,628.142,140.367,627.488,138.983z M636.674,130.007l1.135-5.752
				c-1.134-0.169-2.042-0.076-2.724,0.281c-0.681,0.357-1.106,0.96-1.274,1.811c-0.162,0.819-0.02,1.513,0.424,2.081
				C634.68,128.997,635.493,129.523,636.674,130.007z M636.512,141.369c1.166,0.23,2.097,0.16,2.792-0.21
				c0.695-0.37,1.137-1.033,1.326-1.99c0.191-0.966,0.063-1.772-0.383-2.416c-0.446-0.645-1.272-1.228-2.479-1.75L636.512,141.369z"
				/>
		</g>
		<g>
			<path style="fill:#3AB53D;" d="M655.416,426.468l1.626-3.377c1.061,0.679,2.026,1.13,2.896,1.354
				c0.87,0.224,1.701,0.234,2.492,0.032l-2.364-6.626c-2.495,0.333-4.476,0.176-5.941-0.472c-1.465-0.648-2.5-1.82-3.104-3.514
				c-0.633-1.775-0.542-3.413,0.275-4.915c0.817-1.502,2.259-2.685,4.327-3.548l-0.75-2.103l1.922-0.686l0.75,2.103
				c1.324-0.336,2.603-0.423,3.838-0.261c1.234,0.162,2.483,0.58,3.747,1.255l-1.533,3.446c-0.877-0.608-1.71-1.007-2.499-1.197
				c-0.79-0.19-1.584-0.177-2.382,0.04l2.148,6.021c2.778-0.275,4.902-0.072,6.373,0.608c1.471,0.681,2.531,1.933,3.183,3.758
				c0.669,1.876,0.568,3.609-0.302,5.198c-0.871,1.59-2.386,2.798-4.547,3.626l1.096,3.071l-1.922,0.686l-1.096-3.071
				c-1.503,0.377-2.933,0.447-4.291,0.209S656.686,427.322,655.416,426.468z M658.711,414.055l-1.97-5.521
				c-1.061,0.436-1.793,0.981-2.196,1.636c-0.403,0.655-0.458,1.391-0.167,2.208c0.281,0.786,0.757,1.31,1.43,1.57
				C656.481,414.208,657.449,414.244,658.711,414.055z M664.389,423.897c1.119-0.399,1.883-0.936,2.29-1.61
				c0.407-0.674,0.448-1.47,0.12-2.388c-0.331-0.928-0.853-1.554-1.566-1.88c-0.713-0.325-1.721-0.403-3.025-0.234L664.389,423.897z
				"/>
		</g>
		<g>
			<path style="fill:#3AB53D;" d="M53.576,278.29l1.908-3.226c0.999,0.767,1.923,1.299,2.77,1.596
				c0.848,0.297,1.675,0.379,2.481,0.244l-1.791-6.803c-2.515,0.12-4.475-0.206-5.879-0.977c-1.404-0.771-2.335-2.026-2.793-3.766
				c-0.48-1.822-0.249-3.447,0.693-4.874c0.942-1.427,2.48-2.482,4.614-3.166l-0.568-2.159l1.973-0.519l0.568,2.159
				c1.347-0.222,2.63-0.2,3.846,0.067c1.216,0.267,2.425,0.79,3.627,1.57l-1.821,3.303c-0.821-0.681-1.617-1.149-2.388-1.406
				c-0.771-0.256-1.563-0.311-2.376-0.163l1.627,6.182c2.791-0.037,4.891,0.346,6.298,1.149c1.407,0.803,2.357,2.142,2.851,4.016
				c0.507,1.926,0.259,3.644-0.744,5.154c-1.004,1.51-2.616,2.585-4.839,3.225l0.83,3.153l-1.973,0.519l-0.83-3.153
				c-1.529,0.248-2.96,0.195-4.293-0.157C56.033,279.904,54.77,279.249,53.576,278.29z M57.918,266.202l-1.492-5.669
				c-1.094,0.344-1.87,0.824-2.327,1.443c-0.457,0.618-0.575,1.347-0.355,2.186c0.213,0.808,0.643,1.37,1.291,1.686
				C55.683,266.165,56.644,266.283,57.918,266.202z M62.736,276.493c1.149-0.302,1.956-0.772,2.419-1.409
				c0.463-0.637,0.571-1.426,0.323-2.369c-0.251-0.952-0.717-1.621-1.4-2.006c-0.683-0.385-1.681-0.549-2.994-0.491L62.736,276.493z
				"/>
		</g>
		<g>
			<path style="fill:#3AB53D;" d="M378.687,98.936l1.909-3.225c0.999,0.767,1.922,1.3,2.769,1.597
				c0.848,0.298,1.675,0.379,2.48,0.245l-1.788-6.804c-2.515,0.118-4.475-0.208-5.878-0.98c-1.404-0.771-2.334-2.027-2.791-3.767
				c-0.479-1.822-0.247-3.447,0.696-4.874c0.942-1.427,2.481-2.481,4.615-3.164l-0.567-2.159l1.973-0.518l0.567,2.159
				c1.348-0.221,2.63-0.198,3.846,0.069c1.216,0.267,2.425,0.791,3.626,1.571l-1.823,3.302c-0.821-0.681-1.617-1.15-2.387-1.407
				c-0.771-0.257-1.563-0.312-2.376-0.164L385.183,87c2.791-0.036,4.891,0.348,6.297,1.152c1.407,0.804,2.356,2.143,2.849,4.017
				c0.506,1.926,0.257,3.644-0.747,5.153c-1.004,1.509-2.617,2.584-4.841,3.223l0.828,3.153l-1.973,0.519l-0.829-3.153
				c-1.529,0.247-2.96,0.194-4.293-0.159C381.142,100.551,379.879,99.895,378.687,98.936z M383.034,86.85l-1.49-5.67
				c-1.094,0.343-1.87,0.823-2.328,1.442c-0.457,0.618-0.576,1.347-0.356,2.186c0.212,0.808,0.642,1.37,1.29,1.687
				C380.799,86.812,381.76,86.93,383.034,86.85z M387.848,97.143c1.15-0.302,1.956-0.771,2.42-1.408
				c0.464-0.637,0.572-1.426,0.324-2.369c-0.25-0.953-0.717-1.622-1.399-2.007c-0.682-0.385-1.68-0.549-2.994-0.492L387.848,97.143z
				"/>
		</g>
		<path style="fill:#9698ED;" d="M580.265,167.288l-13.133,12.716c-0.54,0.523-0.554,1.385-0.031,1.925
			c0.523,0.54,1.385,0.554,1.925,0.031c0.009-0.009,0.022-0.022,0.031-0.031l12.716-13.133c4.397,3.637,10.92,3.401,15.037-0.716
			c4.371-4.371,4.371-11.458,0-15.829c-4.371-4.371-11.458-4.371-15.829,0C576.865,156.367,576.628,162.89,580.265,167.288z
			 M582.476,153.746c3.54-3.54,9.299-3.54,12.839,0c3.54,3.54,3.54,9.299,0,12.839c-3.54,3.54-9.299,3.54-12.839,0
			C578.936,163.045,578.936,157.285,582.476,153.746z"/>
		<path style="fill:#9698ED;" d="M55.026,376.2l-13.133,12.716c-0.54,0.523-0.554,1.385-0.031,1.925
			c0.523,0.54,1.385,0.554,1.925,0.031c0.009-0.009,0.022-0.022,0.031-0.031l12.716-13.133c4.397,3.637,10.92,3.401,15.037-0.716
			c4.371-4.371,4.371-11.458,0-15.829c-4.371-4.371-11.458-4.371-15.829,0C51.625,365.28,51.389,371.803,55.026,376.2z
			 M57.236,362.658c3.54-3.54,9.299-3.54,12.839,0c3.54,3.54,3.54,9.299,0,12.839c-3.54,3.54-9.299,3.54-12.839,0
			C53.697,371.957,53.697,366.198,57.236,362.658z"/>
		<path style="fill:#9698ED;" d="M118.355,118.495c-4.371-4.371-11.458-4.371-15.829,0c-4.371,4.371-4.371,11.458,0,15.829
			c4.117,4.117,10.64,4.353,15.037,0.716l12.716,13.133c0.009,0.009,0.022,0.022,0.031,0.031c0.54,0.523,1.402,0.509,1.925-0.031
			c0.523-0.54,0.509-1.402-0.031-1.925l-13.133-12.716C122.708,129.135,122.472,122.611,118.355,118.495z M116.86,132.829
			c-3.54,3.54-9.299,3.54-12.839,0c-3.54-3.54-3.54-9.299,0-12.839c3.54-3.54,9.299-3.54,12.839,0
			C120.4,123.529,120.4,129.289,116.86,132.829z"/>
		<path style="fill:#9698ED;" d="M691.683,350.667c-4.371-4.371-11.458-4.371-15.829,0c-4.371,4.371-4.371,11.458,0,15.829
			c4.117,4.117,10.64,4.353,15.037,0.716l12.716,13.133c0.009,0.009,0.022,0.022,0.031,0.031c0.54,0.523,1.402,0.509,1.925-0.031
			c0.523-0.54,0.509-1.402-0.031-1.925l-13.133-12.716C696.036,361.306,695.8,354.783,691.683,350.667z M690.188,365
			c-3.54,3.54-9.299,3.54-12.839,0c-3.54-3.54-3.54-9.299,0-12.839c3.54-3.54,9.299-3.54,12.839,0
			C693.728,355.701,693.728,361.461,690.188,365z"/>
		<g>
			<rect x="437.889" y="79.114" style="fill:#E6E6FF;" width="3.163" height="13.919"/>
			<rect x="443.692" y="74.627" style="fill:#E6E6FF;" width="3.163" height="18.406"/>
			<rect x="449.496" y="71.273" style="fill:#E6E6FF;" width="3.163" height="21.76"/>
			<rect x="455.299" y="82.631" style="fill:#E6E6FF;" width="3.163" height="10.402"/>
			<rect x="461.102" y="85.569" style="fill:#E6E6FF;" width="3.163" height="7.463"/>
			<rect x="466.905" y="87.832" style="fill:#E6E6FF;" width="3.163" height="5.201"/>
			<rect x="472.708" y="85.004" style="fill:#E6E6FF;" width="3.163" height="8.028"/>
			<rect x="478.511" y="82.631" style="fill:#E6E6FF;" width="3.163" height="10.402"/>
			<rect x="484.314" y="77.715" style="fill:#E6E6FF;" width="3.163" height="15.318"/>
		</g>
		<g>
			<rect x="643.466" y="187.209" style="fill:#E6E6FF;" width="3.163" height="13.919"/>
			<rect x="649.269" y="182.722" style="fill:#E6E6FF;" width="3.163" height="18.406"/>
			<rect x="655.072" y="179.368" style="fill:#E6E6FF;" width="3.163" height="21.76"/>
			<rect x="660.875" y="190.726" style="fill:#E6E6FF;" width="3.163" height="10.402"/>
			<rect x="666.678" y="193.664" style="fill:#E6E6FF;" width="3.163" height="7.463"/>
			<rect x="672.481" y="195.926" style="fill:#E6E6FF;" width="3.163" height="5.201"/>
			<rect x="678.284" y="193.099" style="fill:#E6E6FF;" width="3.163" height="8.028"/>
			<rect x="684.088" y="190.726" style="fill:#E6E6FF;" width="3.163" height="10.402"/>
			<rect x="689.891" y="185.809" style="fill:#E6E6FF;" width="3.163" height="15.318"/>
		</g>
		<g>
			
				<rect x="94.361" y="171.17" transform="matrix(-1 -1.224647e-16 1.224647e-16 -1 191.8853 356.2583)" style="fill:#E6E6FF;" width="3.163" height="13.919"/>
			
				<rect x="88.558" y="166.683" transform="matrix(-1 -3.161156e-05 3.161156e-05 -1 180.2734 351.7743)" style="fill:#E6E6FF;" width="3.163" height="18.406"/>
			
				<rect x="82.755" y="163.329" transform="matrix(-1 -1.224647e-16 1.224647e-16 -1 168.6727 348.4173)" style="fill:#E6E6FF;" width="3.163" height="21.76"/>
			
				<rect x="76.951" y="174.687" transform="matrix(-1 -1.224647e-16 1.224647e-16 -1 157.0664 359.7751)" style="fill:#E6E6FF;" width="3.163" height="10.402"/>
			
				<rect x="71.148" y="177.625" transform="matrix(-1 -1.224647e-16 1.224647e-16 -1 145.4601 362.7134)" style="fill:#E6E6FF;" width="3.163" height="7.463"/>
			
				<rect x="65.345" y="179.887" transform="matrix(-1 -1.224647e-16 1.224647e-16 -1 133.8539 364.9759)" style="fill:#E6E6FF;" width="3.163" height="5.201"/>
			
				<rect x="59.542" y="177.06" transform="matrix(-1 -1.224647e-16 1.224647e-16 -1 122.2476 362.1484)" style="fill:#E6E6FF;" width="3.163" height="8.028"/>
			
				<rect x="53.739" y="174.687" transform="matrix(-1 -1.224647e-16 1.224647e-16 -1 110.6413 359.7751)" style="fill:#E6E6FF;" width="3.163" height="10.402"/>
			
				<rect x="47.936" y="169.771" transform="matrix(-1 -1.224647e-16 1.224647e-16 -1 99.035 354.8591)" style="fill:#E6E6FF;" width="3.163" height="15.318"/>
		</g>
		<g>
			<g>
				<path style="fill:#4145E7;" d="M596.635,107.475c1.93,0,1.934-3,0-3C594.705,104.475,594.702,107.475,596.635,107.475
					L596.635,107.475z"/>
			</g>
			<g>
				<path style="fill:#4145E7;" d="M352.46,134.911c1.93,0,1.934-3,0-3C350.529,131.911,350.526,134.911,352.46,134.911
					L352.46,134.911z"/>
			</g>
			<g>
				<path style="fill:#4145E7;" d="M151.834,177.209c1.93,0,1.934-3,0-3C149.904,174.209,149.901,177.209,151.834,177.209
					L151.834,177.209z"/>
			</g>
			<g>
				<path style="fill:#4145E7;" d="M287.32,409.25c1.93,0,1.934-3,0-3C285.39,406.25,285.387,409.25,287.32,409.25L287.32,409.25z"
					/>
			</g>
			<g>
				<path style="fill:#4145E7;" d="M470.101,416.79c1.93,0,1.934-3,0-3C468.17,413.79,468.167,416.79,470.101,416.79L470.101,416.79
					z"/>
			</g>
			<g>
				<path style="fill:#4145E7;" d="M687.885,301.592c1.93,0,1.934-3,0-3C685.954,298.592,685.951,301.592,687.885,301.592
					L687.885,301.592z"/>
			</g>
		</g>
	</g>
</g>
</svg>
